<svg width="168" height="90" viewBox="0 0 168 90" fill="none" xmlns="http://www.w3.org/2000/svg">
<path d="M148.4 46.3444C99 46.1444 49.6 46.3445 0 46.2445V43.3444H148C148 43.2444 148 43.1444 148 43.0444C147 42.6444 146.1 42.2444 145.1 41.8444C135.8 38.4444 127.4 33.5445 120.2 26.7445C114.8 21.6445 110.3 15.8445 108.1 8.74446C107.3 6.24446 107 3.54444 106.5 1.04444C106.4 0.344444 106.7 0.0444444 107.4 0.0444444C107.8 0.0444444 108.3 -0.0555556 108.6 0.0444444C109 0.144444 109.5 0.544432 109.5 0.844432C110 10.9444 115.4 18.5445 122.5 25.1445C130.5 32.5445 140 37.5445 150.4 40.7445C155.7 42.3445 161.1 43.4444 166.6 43.4444C167.2 43.4444 167.5 43.6445 167.5 44.2445C167.7 46.1445 167.5 46.3444 165.6 46.4444C158.2 46.6444 151.1 48.5445 144.3 51.2445C137.3 54.0445 130.7 57.7444 124.9 62.6444C118.8 67.7444 113.6 73.6445 111 81.2445C110.2 83.6445 110 86.1444 109.5 88.6444C109.5 89.0444 109.5 89.4444 109.4 89.8444H106.6C106.6 86.9444 107 84.2444 107.9 81.5444C110.9 72.2444 117 65.2444 124.6 59.3444C130.5 54.7444 137.1 51.0444 144.1 48.3444C145.5 47.8444 146.9 47.4444 148.3 46.9444C148.3 46.7444 148.3 46.6444 148.3 46.4444L148.4 46.3444Z" fill="#231F20"/>
</svg>
