<svg width="171" height="106" viewBox="0 0 171 106" fill="none" xmlns="http://www.w3.org/2000/svg">
<path d="M109.4 68.9253C108.9 68.9253 108.4 69.0253 107.8 69.0253C91 69.0253 74.1 69.0253 57.3 69.0253C39.6 69.0253 21.8 69.0253 4.09999 69.0253C3.19999 69.0253 2.29999 69.0253 1.39999 68.9253C0.499994 68.9253 0.1 68.2253 0 67.4253C0 67.2253 0 66.9253 0 66.7253C0 57.2253 0 47.7253 0 38.2253C0 37.9253 0 37.5253 0 37.2253C0.1 36.5253 0.500003 35.9253 1.3 35.9253C1.8 35.9253 2.2 35.9253 2.7 35.9253C37.7 35.9253 72.6 35.9253 107.6 35.9253C108.2 35.9253 108.8 36.0253 109.6 36.1253C108.9 35.5253 108.4 35.0253 107.8 34.4253C104.6 31.2253 101.5 28.0253 98.3 24.9253C96.1 22.7253 96.7 20.9253 98.3 19.3253C101.7 15.9253 105.1 12.5253 108.5 9.12529C111.1 6.52529 113.6 4.02529 116.2 1.42529C116.8 0.825292 117.6 0.325292 118.4 0.125292C119.7 -0.274708 120.8 0.325292 121.8 1.32529C125 4.52529 128.2 7.72529 131.4 10.9253C143.6 23.0253 155.8 35.0253 167.9 47.1253C168.7 47.9253 169.4 49.0253 169.9 50.1253C171.2 52.8253 170.3 55.1253 168.4 57.2253C166.3 59.3253 164.3 61.4253 162.2 63.5253C149.2 76.8253 136.1 90.0253 123.1 103.325C122.8 103.625 122.5 103.925 122.2 104.225C120.6 105.525 118.9 105.525 117.4 104.225C112.3 99.4253 107.3 94.7253 102.3 89.9253C100.9 88.6253 99.5 87.3253 98.2 85.9253C97.6 85.3253 97.1 84.7253 96.8 83.9253C96.4 82.7253 96.8 81.7253 97.7 80.8253C101.3 77.2253 104.9 73.6253 108.5 70.0253C108.8 69.7253 109.1 69.5253 109.4 69.3253C109.4 69.3253 109.4 69.2253 109.4 69.1253V68.9253ZM57.8 38.5253C39.8 38.5253 21.8 38.5253 3.8 38.5253C3 38.5253 2.7 38.7253 2.7 39.5253C2.7 43.8253 2.7 48.1253 2.8 52.4253C2.8 56.2253 2.8 60.1253 2.8 63.9253C2.8 66.3253 2.69999 66.3253 5.09999 66.3253C40.4 66.3253 75.8 66.3253 111.1 66.3253C111.6 66.3253 112.1 66.3253 112.5 66.4253C113.8 66.7253 114.2 67.5253 113.4 68.6253C113.3 68.8253 113.1 69.0253 112.9 69.2253C108.6 73.5253 104.3 77.8253 100 82.0253C99.2 82.8253 99.2 82.9253 100 83.6253C104.1 87.4253 108.1 91.3253 112.2 95.1253C114.4 97.2253 116.5 99.3253 118.6 101.525C119.5 102.425 119.6 102.425 120.5 101.525C120.8 101.225 121 100.925 121.3 100.725C136.4 85.6253 151.6 70.6253 166.3 55.1253C168.3 53.0253 168.3 51.6253 166.3 49.5253C166.1 49.3253 165.9 49.1253 165.7 48.9253C162.7 45.9253 159.7 42.9253 156.7 39.9253C144.4 27.6253 132.1 15.3253 119.7 3.02529C118.9 2.22529 118.8 2.22529 118 3.02529C112.1 8.92529 106.2 14.8253 100.2 20.7253C99.1 21.8253 99.1 21.9253 100.2 23.0253C104.4 27.1253 108.6 31.2253 112.8 35.3253C113.4 35.9253 113.9 36.5253 113.6 37.4253C113.3 38.3253 112.4 38.4253 111.6 38.4253C109.3 38.4253 106.9 38.4253 104.6 38.4253C88.9 38.4253 73.2 38.4253 57.5 38.4253L57.8 38.5253Z" fill="#231F20"/>
<path d="M57.8 38.4253C73.5 38.4253 89.2 38.4253 104.9 38.4253C107.2 38.4253 109.6 38.4253 111.9 38.4253C112.7 38.4253 113.6 38.4253 113.9 37.4253C114.2 36.6253 113.7 35.9253 113.1 35.3253C108.9 31.2253 104.7 27.1253 100.5 23.0253C99.4 21.9253 99.4 21.8253 100.5 20.7253C106.4 14.8253 112.3 8.92529 118.3 3.02529C119.1 2.22529 119.2 2.22529 120 3.02529C132.3 15.3253 144.6 27.6253 157 39.9253C160 42.9253 163 45.9253 166 48.9253C166.2 49.1253 166.4 49.3253 166.6 49.5253C168.6 51.6253 168.6 53.0253 166.6 55.1253C152 70.7253 136.7 85.6253 121.6 100.725C121.3 101.025 121 101.325 120.8 101.525C119.9 102.425 119.8 102.425 118.9 101.525C116.8 99.4253 114.6 97.2253 112.5 95.1253C108.5 91.2253 104.4 87.4253 100.3 83.6253C99.5 82.8253 99.5 82.7253 100.3 82.0253C104.6 77.7253 108.9 73.4253 113.2 69.2253C113.4 69.0253 113.6 68.8253 113.7 68.6253C114.4 67.5253 114.1 66.6253 112.8 66.4253C112.3 66.4253 111.8 66.3253 111.4 66.3253C76.1 66.3253 40.7 66.3253 5.39999 66.3253C2.99999 66.3253 3.09999 66.3253 3.09999 63.9253C3.09999 60.1253 3.09999 56.2253 3.09999 52.4253C3.09999 48.1253 3.1 43.8253 3 39.5253C3 38.6253 3.29999 38.5253 4.09999 38.5253C22.1 38.5253 40.1 38.5253 58.1 38.5253L57.8 38.4253Z" fill="#00AC37"/>
</svg>
