<svg width="94" height="271" viewBox="0 0 94 271" fill="none" xmlns="http://www.w3.org/2000/svg">
<path d="M33.6048 269.964C39.6068 269.551 45.5978 267.331 50.6818 264.18C71.9858 250.976 70.6668 231.897 70.0568 209.774C69.8188 201.123 69.9668 192.458 69.9498 183.805C69.9388 178.514 69.3428 172.419 70.5838 167.29C72.6658 158.691 86.2028 165.008 91.0418 161.838C91.9828 161.221 92.6838 160.126 92.8508 159.011C93.1908 156.738 93.0068 154.226 92.9998 151.928L92.9658 139.47C92.9568 130.893 93.5828 122.12 92.9088 113.579C92.8038 112.251 92.6338 110.234 91.7668 109.16C89.2508 106.045 80.3078 107.839 76.4828 107.537C74.1098 107.35 71.8918 106.542 70.8228 104.242C69.1938 100.738 69.9608 94.6283 69.9598 90.7453C69.9598 81.5973 69.8258 72.4353 69.9808 63.2889C70.2828 45.5024 72.5988 28.6359 60.2168 14.025C52.6298 5.07311 42.7048 1.18951 31.2518 0.248008C27.6508 -0.180292 23.6898 0.107608 20.0478 0.103808C15.2688 0.0989082 10.2227 -0.221592 5.48275 0.288808C4.13575 0.433808 2.84476 0.684309 1.64877 1.33811C0.726768 2.42671 0.51976 4.40171 0.389763 5.77441C-0.0592346 10.5453 0.281746 15.5596 0.28875 20.3646C0.300751 28.8314 0.216751 37.3104 0.344749 45.7759C0.366753 47.2279 0.476761 50.8309 1.59676 51.8458C4.83676 54.7828 13.1428 53.5461 17.1518 53.3675C20.2438 53.2297 23.9878 52.8106 26.4328 55.1243C28.1248 56.7258 28.2998 58.8392 28.3858 61.0445C28.7858 71.2723 28.3917 81.6543 28.3577 91.8983L28.3418 145.498L28.3778 187.278C28.4128 194.846 28.8878 202.677 28.4038 210.214C28.2878 212.029 28.1328 213.538 26.8168 214.916C23.1798 218.722 12.3688 216.764 7.41576 216.867C5.41077 216.909 2.98477 217.082 1.55877 218.695C0.559769 219.825 0.293747 221.773 0.16375 223.219C-0.293251 228.29 0.350761 235.368 0.359764 240.692C0.373764 248.407 -0.249252 256.452 0.23275 264.113C0.332748 265.697 0.531776 268.063 1.84377 269.128C2.70877 269.829 3.86476 270.005 4.93676 270.137C9.25876 270.671 13.7348 270.294 18.0808 270.268C23.2178 270.237 28.4908 270.479 33.6048 269.964ZM25.1098 3.25041C37.0518 3.62841 48.1228 6.08971 56.6018 15.1452C57.1511 15.7353 57.6811 16.3423 58.1918 16.966C58.7024 17.5897 59.1931 18.2289 59.6638 18.8836C60.1338 19.5383 60.5828 20.2073 61.0108 20.8905C61.4388 21.5737 61.8448 22.2697 62.2288 22.9786C62.6128 23.6875 62.9741 24.4078 63.3128 25.1395C63.6508 25.8712 63.9658 26.6128 64.2578 27.3645C64.5491 28.1162 64.8164 28.8763 65.0598 29.6449C65.3031 30.4135 65.5218 31.189 65.7158 31.9714C68.1358 41.7828 66.8858 53.236 66.8868 63.3216C66.8878 72.9403 67.1868 82.6393 66.8278 92.2453C66.6368 97.3443 65.6658 104.066 69.4698 108.128C71.6648 110.471 74.8288 110.898 77.8808 110.955C81.8048 111.028 85.7478 110.768 89.6618 111.102L89.7878 140.669C89.8098 146.922 90.0518 153.128 89.6048 159.375C83.9488 159.365 73.7618 158.218 69.5588 162.367C67.0588 164.835 66.6098 168.541 66.6298 171.889L66.9088 209.85C66.9538 219.446 68.0028 229.675 65.6118 239.058C65.4091 239.844 65.1811 240.623 64.9278 241.393C64.6744 242.164 64.3964 242.926 64.0938 243.679C63.7904 244.432 63.4631 245.174 63.1118 245.905C62.7604 246.637 62.3858 247.356 61.9878 248.063C61.5898 248.771 61.1691 249.464 60.7258 250.143C60.2831 250.823 59.8184 251.488 59.3318 252.137C58.8451 252.787 58.3381 253.42 57.8108 254.036C57.2828 254.653 56.7354 255.252 56.1688 255.832C51.3878 260.736 45.1988 263.977 38.6738 265.898C31.3138 267.527 24.0308 266.944 16.5738 266.925C12.2788 266.915 7.96876 267.193 3.68176 266.851C3.51276 257.755 3.62577 248.687 3.60677 239.592C3.59277 233.172 3.31675 226.839 3.71975 220.421C9.63175 220.342 19.4337 221.255 24.7887 219.873C26.4108 219.455 27.9858 218.695 29.1568 217.475C30.6148 215.957 31.3918 213.635 31.5828 211.575C32.1918 205.002 31.6918 198.053 31.6858 191.439L31.6808 152.638L31.6868 91.3583C31.6868 81.1213 32.0318 70.7543 31.6608 60.5297C31.5548 57.5804 31.0128 54.7794 28.7778 52.6847C23.9348 48.1458 10.4098 50.3249 3.86077 49.9206C3.46177 43.2035 3.61677 36.4152 3.52377 29.6853C3.4251 24.1152 3.4351 18.5454 3.55376 12.9757C3.61376 9.85851 3.53476 6.65291 4.02676 3.56721C10.8818 2.85961 18.2178 3.02161 25.1098 3.25041Z" fill="#272525"/>
<path d="M89.662 111.103C85.748 110.769 81.805 111.029 77.881 110.956C74.829 110.899 71.665 110.472 69.47 108.129C65.666 104.067 66.637 97.3445 66.828 92.2455C67.187 82.6395 66.888 72.9405 66.887 63.3218C66.886 53.2362 68.136 41.783 65.716 31.9716C65.522 31.1892 65.3033 30.4137 65.06 29.6451C64.8167 28.8765 64.5493 28.1164 64.258 27.3647C63.966 26.6131 63.651 25.8714 63.313 25.1397C62.9743 24.408 62.613 23.6877 62.229 22.9788C61.845 22.27 61.439 21.5739 61.011 20.8907C60.583 20.2075 60.134 19.5386 59.664 18.8838C59.1933 18.2291 58.7027 17.5899 58.192 16.9662C57.6813 16.3425 57.1513 15.7356 56.602 15.1454C48.123 6.08993 37.052 3.62863 25.11 3.25063C18.218 3.02183 10.882 2.85983 4.027 3.56743C3.535 6.65313 3.61401 9.85873 3.55401 12.9759C3.43534 18.5456 3.42535 24.1155 3.52401 29.6855C3.61701 36.4154 3.46201 43.2037 3.86102 49.9208C10.41 50.3251 23.935 48.146 28.778 52.6849C31.013 54.7796 31.555 57.5806 31.661 60.5299C32.032 70.7545 31.687 81.1215 31.687 91.3585L31.681 152.639L31.686 191.44C31.692 198.054 32.192 205.003 31.583 211.576C31.392 213.636 30.615 215.958 29.157 217.476C27.986 218.696 26.411 219.456 24.789 219.874C19.434 221.256 9.632 220.343 3.71999 220.422C3.31699 226.84 3.59302 233.173 3.60702 239.593C3.62601 248.688 3.513 257.756 3.682 266.852C7.969 267.194 12.279 266.915 16.574 266.926C24.031 266.945 31.314 267.528 38.674 265.899C45.199 263.978 51.388 260.737 56.169 255.833C56.7357 255.252 57.283 254.653 57.811 254.037C58.3383 253.42 58.8453 252.787 59.332 252.138C59.8187 251.488 60.2833 250.824 60.726 250.144C61.1693 249.464 61.59 248.771 61.988 248.064C62.386 247.356 62.7607 246.637 63.112 245.906C63.4634 245.174 63.7907 244.432 64.094 243.68C64.3967 242.926 64.6747 242.164 64.928 241.394C65.1813 240.623 65.4093 239.845 65.612 239.059C68.003 229.676 66.954 219.447 66.909 209.851L66.63 171.89C66.61 168.542 67.059 164.836 69.559 162.368C73.762 158.219 83.949 159.366 89.605 159.376C90.052 153.129 89.81 146.923 89.788 140.67L89.662 111.103Z" fill="#FEE8A6"/>
</svg>
