<svg width="94" height="271" viewBox="0 0 94 271" fill="none" xmlns="http://www.w3.org/2000/svg">
<path d="M59.6169 269.964C53.6149 269.551 47.6239 267.331 42.5399 264.18C21.2359 250.976 22.5549 231.897 23.1649 209.774C23.4029 201.123 23.2549 192.458 23.2719 183.805C23.2829 178.514 23.8789 172.419 22.6379 167.29C20.5559 158.691 7.01891 165.008 2.17991 161.838C1.23891 161.221 0.537915 160.126 0.370915 159.011C0.030915 156.738 0.214913 154.226 0.221913 151.928L0.25591 139.47C0.26491 130.893 -0.361084 122.12 0.312916 113.579C0.417916 112.251 0.587915 110.234 1.45491 109.16C3.97091 106.045 12.9139 107.839 16.7389 107.537C19.1119 107.35 21.3299 106.542 22.3989 104.242C24.0279 100.738 23.2609 94.6283 23.2619 90.7453C23.2619 81.5973 23.3959 72.4353 23.2409 63.2889C22.9389 45.5024 20.6229 28.6359 33.0049 14.025C40.5919 5.07311 50.5169 1.18951 61.9699 0.248008C65.5709 -0.180292 69.5319 0.107608 73.1739 0.103808C77.9529 0.0989082 82.9989 -0.221592 87.7389 0.288808C89.0859 0.433808 90.3769 0.684309 91.5729 1.33811C92.4949 2.42671 92.7019 4.40171 92.8319 5.77441C93.2809 10.5453 92.9399 15.5596 92.9329 20.3646C92.9209 28.8314 93.0049 37.3104 92.8769 45.7759C92.8549 47.2279 92.7449 50.8309 91.6249 51.8458C88.3849 54.7828 80.0789 53.5461 76.0699 53.3675C72.9779 53.2297 69.2339 52.8106 66.7889 55.1243C65.0969 56.7258 64.9219 58.8392 64.8359 61.0445C64.4359 71.2723 64.8299 81.6543 64.8639 91.8983L64.8799 145.498L64.8439 187.278C64.8089 194.846 64.3339 202.677 64.8179 210.214C64.9339 212.029 65.0889 213.538 66.4049 214.916C70.0419 218.722 80.8529 216.764 85.8059 216.867C87.8109 216.909 90.2369 217.082 91.6629 218.695C92.6619 219.825 92.9279 221.773 93.0579 223.219C93.5149 228.29 92.8709 235.368 92.8619 240.692C92.8479 248.407 93.4709 256.452 92.9889 264.113C92.8889 265.697 92.6899 268.063 91.3779 269.128C90.5129 269.829 89.3569 270.005 88.2849 270.137C83.9629 270.671 79.4869 270.294 75.1409 270.268C70.0039 270.237 64.7309 270.479 59.6169 269.964ZM68.1119 3.25041C56.1699 3.62841 45.0989 6.08971 36.6199 15.1452C36.0706 15.7353 35.5406 16.3423 35.0299 16.966C34.5192 17.5897 34.0286 18.2289 33.5579 18.8836C33.0879 19.5383 32.6389 20.2073 32.2109 20.8905C31.7829 21.5737 31.3769 22.2697 30.9929 22.9786C30.6089 23.6875 30.2476 24.4078 29.9089 25.1395C29.5709 25.8712 29.2559 26.6128 28.9639 27.3645C28.6726 28.1162 28.4052 28.8763 28.1619 29.6449C27.9186 30.4135 27.6999 31.189 27.5059 31.9714C25.0859 41.7828 26.3359 53.236 26.3349 63.3216C26.3339 72.9403 26.0349 82.6393 26.3939 92.2453C26.5849 97.3443 27.5559 104.066 23.7519 108.128C21.5569 110.471 18.3929 110.898 15.3409 110.955C11.4169 111.028 7.47391 110.768 3.55991 111.102L3.43392 140.669C3.41192 146.922 3.16992 153.128 3.61692 159.375C9.27292 159.365 19.4599 158.218 23.6629 162.367C26.1629 164.835 26.6119 168.541 26.5919 171.889L26.3129 209.85C26.2679 219.446 25.2189 229.675 27.6099 239.058C27.8126 239.844 28.0406 240.623 28.2939 241.393C28.5473 242.164 28.8252 242.926 29.1279 243.679C29.4312 244.432 29.7586 245.174 30.1099 245.905C30.4612 246.637 30.8359 247.356 31.2339 248.063C31.6319 248.771 32.0526 249.464 32.4959 250.143C32.9386 250.823 33.4033 251.488 33.8899 252.137C34.3766 252.787 34.8836 253.42 35.4109 254.036C35.9389 254.653 36.4863 255.252 37.0529 255.832C41.8339 260.736 48.0229 263.977 54.5479 265.898C61.9079 267.527 69.1909 266.944 76.6479 266.925C80.9429 266.915 85.2529 267.193 89.5399 266.851C89.7089 257.755 89.5959 248.687 89.6149 239.592C89.6289 233.172 89.9049 226.839 89.5019 220.421C83.5899 220.342 73.7879 221.255 68.4329 219.873C66.8109 219.455 65.2359 218.695 64.0649 217.475C62.6069 215.957 61.8299 213.635 61.6389 211.575C61.0299 205.002 61.5299 198.053 61.5359 191.439L61.5409 152.638L61.5349 91.3583C61.5349 81.1213 61.1899 70.7543 61.5609 60.5297C61.6669 57.5804 62.2089 54.7794 64.4439 52.6847C69.2869 48.1458 82.8119 50.3249 89.3609 49.9206C89.7599 43.2035 89.6049 36.4152 89.6979 29.6853C89.7966 24.1152 89.7866 18.5454 89.6679 12.9757C89.6079 9.85851 89.6869 6.65291 89.1949 3.56721C82.3399 2.85961 75.0039 3.02161 68.1119 3.25041Z" fill="#272525"/>
<path d="M3.55967 111.103C7.47367 110.769 11.4167 111.029 15.3407 110.956C18.3927 110.899 21.5567 110.472 23.7517 108.129C27.5557 104.067 26.5847 97.3445 26.3937 92.2455C26.0347 82.6395 26.3337 72.9405 26.3347 63.3218C26.3357 53.2362 25.0857 41.783 27.5057 31.9716C27.6997 31.1892 27.9183 30.4137 28.1617 29.6451C28.405 28.8765 28.6723 28.1164 28.9637 27.3647C29.2557 26.6131 29.5707 25.8714 29.9087 25.1397C30.2473 24.408 30.6087 23.6877 30.9927 22.9788C31.3767 22.27 31.7827 21.5739 32.2107 20.8907C32.6387 20.2075 33.0877 19.5386 33.5577 18.8838C34.0284 18.2291 34.519 17.5899 35.0297 16.9662C35.5403 16.3425 36.0703 15.7356 36.6197 15.1454C45.0987 6.08993 56.1697 3.62863 68.1117 3.25063C75.0037 3.02183 82.3397 2.85983 89.1947 3.56743C89.6867 6.65313 89.6077 9.85873 89.6677 12.9759C89.7863 18.5456 89.7963 24.1155 89.6977 29.6855C89.6047 36.4154 89.7597 43.2037 89.3607 49.9208C82.8117 50.3251 69.2867 48.146 64.4437 52.6849C62.2087 54.7796 61.6667 57.5806 61.5607 60.5299C61.1897 70.7545 61.5347 81.1215 61.5347 91.3585L61.5407 152.639L61.5357 191.44C61.5297 198.054 61.0297 205.003 61.6387 211.576C61.8297 213.636 62.6067 215.958 64.0647 217.476C65.2357 218.696 66.8107 219.456 68.4327 219.874C73.7877 221.256 83.5897 220.343 89.5017 220.422C89.9047 226.84 89.6287 233.173 89.6147 239.593C89.5957 248.688 89.7087 257.756 89.5397 266.852C85.2527 267.194 80.9427 266.915 76.6477 266.926C69.1907 266.945 61.9077 267.528 54.5477 265.899C48.0227 263.978 41.8337 260.737 37.0527 255.833C36.486 255.252 35.9387 254.653 35.4107 254.037C34.8833 253.42 34.3764 252.787 33.8897 252.138C33.403 251.488 32.9383 250.824 32.4957 250.144C32.0523 249.464 31.6317 248.771 31.2337 248.064C30.8357 247.356 30.461 246.637 30.1097 245.906C29.7583 245.174 29.431 244.432 29.1277 243.68C28.825 242.926 28.547 242.164 28.2937 241.394C28.0403 240.623 27.8123 239.845 27.6097 239.059C25.2187 229.676 26.2677 219.447 26.3127 209.851L26.5917 171.89C26.6117 168.542 26.1627 164.836 23.6627 162.368C19.4597 158.219 9.27268 159.366 3.61668 159.376C3.16968 153.129 3.41168 146.923 3.43368 140.67L3.55967 111.103Z" fill="#FEE8A6"/>
</svg>
