<svg width="216" height="46" viewBox="0 0 216 46" fill="none" xmlns="http://www.w3.org/2000/svg">
<path d="M72.1505 13.6889C72.1518 13.721 72.1527 13.7532 72.153 13.7854C72.1725 15.024 71.6348 16.4932 71.2395 17.6729C69.0747 24.1325 65.3572 30.431 60.6363 35.3506C54.5301 41.7135 46.3595 45.798 37.4778 45.9771C28.7134 46.1537 20.4401 42.3939 14.1804 36.3737C4.22275 26.7971 0.268204 13.5924 0 0.0838514C0.971472 0.0969595 1.94309 0.0633386 2.91417 0.0384732C2.77379 5.65961 3.78999 11.5501 5.6176 16.8584C8.96858 26.5916 15.4704 35.4925 24.8794 40.0765C25.2854 40.2753 25.696 40.4639 26.1114 40.6423C26.5267 40.8208 26.9462 40.9889 27.3699 41.1466C27.7936 41.3041 28.221 41.451 28.652 41.5874C29.083 41.7238 29.5171 41.8494 29.9544 41.9641C30.3916 42.0789 30.8314 42.1826 31.2739 42.2753C31.7163 42.3681 32.1607 42.4498 32.6072 42.5205C33.0537 42.5915 33.5017 42.6512 33.9511 42.6996C34.4006 42.748 34.851 42.7852 35.3023 42.8112C35.7535 42.8372 36.2052 42.8519 36.6573 42.8552C37.1094 42.8589 37.5613 42.8512 38.0131 42.8322C38.4645 42.8135 38.9152 42.7833 39.3653 42.7416C39.8157 42.7003 40.2647 42.6477 40.7121 42.584C41.1595 42.5203 41.6051 42.4456 42.0489 42.3599C42.493 42.2738 42.9344 42.1769 43.3731 42.0692C43.8122 41.9611 44.2483 41.8424 44.6814 41.713C45.1145 41.5836 45.5441 41.4433 45.9702 41.2922C54.9683 38.1793 61.8886 30.6946 65.9774 22.2748C68.1862 17.7259 72.219 4.84025 70.5789 0.104565L73.4518 0.135234C74.4323 1.20044 74.2634 4.71803 74.3518 6.22016C74.5982 10.4125 75.84 15.0031 77.3912 18.8987C81.1371 28.3084 87.6841 36.5527 97.1494 40.6213C97.5595 40.7988 97.9736 40.9659 98.3917 41.1226C98.8099 41.2797 99.2316 41.4263 99.6571 41.5624C100.082 41.6988 100.511 41.8246 100.943 41.9396C101.374 42.055 101.808 42.1598 102.245 42.2538C102.682 42.3475 103.121 42.4306 103.561 42.503C104.002 42.5754 104.444 42.6369 104.888 42.6876C105.332 42.7383 105.777 42.7781 106.223 42.8072C106.669 42.8358 107.115 42.8537 107.561 42.8607C108.008 42.8677 108.455 42.8637 108.901 42.8487C109.347 42.8337 109.793 42.8078 110.238 42.7711C110.684 42.7341 111.128 42.6864 111.571 42.6281C112.013 42.5694 112.454 42.4998 112.894 42.4194C113.333 42.339 113.771 42.248 114.206 42.1463C114.64 42.0445 115.073 41.9321 115.502 41.809C115.932 41.6863 116.358 41.5529 116.781 41.4088C117.204 41.265 117.623 41.1109 118.038 40.9465C126.941 37.3843 133.986 29.4356 137.713 20.7297C139.5 16.5553 143.243 4.14857 141.6 0.0410754L144.545 0.025165C145.27 0.784286 145.625 8.96646 146.059 10.9382C148.408 21.6075 154.003 32.1151 163.422 38.1243C169.838 42.2168 177.391 43.8763 184.875 42.2148C193.559 40.2861 200.9 34.0323 205.586 26.653C207.288 23.9721 211.739 15.804 211.09 12.8921C211.099 12.8825 211.109 12.8733 211.117 12.8634C211.132 12.8469 211.145 12.8294 211.159 12.8129C211.878 11.9868 212.055 10.5075 212.25 9.45872C212.654 7.29057 213.655 1.83264 212.399 0L215.439 0.0351714C215.801 0.475845 215.91 1.04085 215.959 1.59514C216.089 3.08046 215.88 4.65694 215.755 6.13906C215.7 6.75151 215.634 7.36272 215.556 7.9727C215.478 8.58264 215.389 9.19094 215.289 9.79758C215.188 10.4042 215.077 11.0088 214.954 11.6113C214.831 12.2137 214.696 12.8137 214.551 13.4112C214.406 14.0086 214.249 14.6031 214.081 15.1947C213.914 15.7863 213.735 16.3746 213.546 16.9595C213.356 17.5445 213.156 18.1257 212.944 18.7031C212.733 19.2806 212.511 19.8539 212.278 20.423C212.045 20.9921 211.802 21.5567 211.548 22.1168C211.294 22.6769 211.03 23.232 210.756 23.7822C210.481 24.3324 210.196 24.8773 209.901 25.4168C209.606 25.9564 209.301 26.4902 208.987 27.0184C208.672 27.5465 208.347 28.0686 208.013 28.5847C207.679 29.1007 207.335 29.6103 206.981 30.1135C206.628 30.6167 206.265 31.1131 205.893 31.6028C205.522 32.0924 205.141 32.5749 204.75 33.0503C198.906 40.052 190.866 45.0521 181.655 45.8786C165.847 47.2964 152.862 36.1042 146.696 22.396C145.874 20.569 144.37 14.5614 143.164 13.5766C143.152 13.5666 143.14 13.5571 143.127 13.5473C143.162 13.7575 143.177 13.969 143.17 14.182C143.014 20.3157 134.964 32.3646 130.44 36.5998C123.925 42.6971 115.717 46.2553 106.728 45.9561C92.7628 45.4918 81.2416 35.1251 75.7391 22.7912C74.7261 20.521 73.7062 15.3209 72.184 13.7233C72.173 13.7117 72.1615 13.7004 72.1505 13.6889Z" fill="#1E1E1E"/>
</svg>
