<svg width="167" height="153" viewBox="0 0 167 153" fill="none" xmlns="http://www.w3.org/2000/svg">
<path d="M1 151.485C1 151.234 14.4771 117.261 31.04 76.0539L61.0171 1H82.0514C93.5762 1 103.023 1.18874 103.023 1.44038C103.023 1.75494 89.6716 35.3499 73.2976 76.1797C56.9865 117.01 43.3205 150.793 42.9427 151.234C42.3759 151.863 37.7786 152.051 21.6564 151.989C10.2576 151.989 1 151.8 1 151.485Z" fill="#FF73AF"/>
<path d="M93.5762 76.4943C109.635 36.5452 122.986 3.20192 123.301 2.44697L123.805 1H144.902C156.553 1 166.063 1.12582 166 1.18874C166 1.25165 152.46 35.1612 105.794 151.674L64.04 151.989L64.2289 150.604C64.3548 149.85 77.58 116.506 93.5762 76.4943Z" fill="#FF73AF"/>
<path d="M1 151.485C1 151.234 14.4771 117.261 31.04 76.0539L61.0171 1H82.0514C93.5762 1 103.023 1.18874 103.023 1.44038C103.023 1.75494 89.6716 35.3499 73.2976 76.1797C56.9865 117.01 43.3205 150.793 42.9427 151.234C42.3759 151.863 37.7786 152.051 21.6564 151.989C10.2576 151.989 1 151.8 1 151.485Z" stroke="#1E1E1E" stroke-width="2"/>
<path d="M93.5762 76.4943C109.635 36.5452 122.986 3.20192 123.301 2.44697L123.805 1H144.902C156.553 1 166.063 1.12582 166 1.18874C166 1.25165 152.46 35.1612 105.794 151.674L64.04 151.989L64.2289 150.604C64.3548 149.85 77.58 116.506 93.5762 76.4943Z" stroke="#1E1E1E" stroke-width="2"/>
</svg>
