<svg width="133" height="94" viewBox="0 0 133 94" fill="none" xmlns="http://www.w3.org/2000/svg">
<path d="M30.5 0.200012C36.4 0.400012 41.9 1.70002 47 4.90002C53.3 8.90002 57.7 14.3 59.9 21.5C60.5 23.5 60.6 25.7 61 27.7C61.5 30.8 61 33.8 60.6 36.9C59.9 41.5 58.2 45.9 55.8 49.9C53.4 54 50.9 58 48.3 62C44.8 67.4 41.2 72.8 37.6 78.1C34.8 82.3 32.1 86.4 29.2 90.6C26.9 94 23.1 94.7 19.7 92.5C16.3 90.4 13 88.2 9.7 86C6.6 84 5.7 80.2 7.6 77C9.3 74.2 11.1 71.6 12.9 68.8C14.4 66.5 15.8 64.1 17.3 61.7C18 60.6 18.8 59.5 19.5 58.5C20.1 57.7 19.9 57.4 19 57.1C16 56.2 13.3 54.7 10.8 52.7C7 49.6 4.1 46 2.2 41.5C1.3 39.4 0.5 37.3 0.4 34.9C0.4 33.4 0 31.9 0 30.4C0 28.8 0.4 27.2 0.4 25.6C0.4 23.3 1.2 21.2 2.1 19.2C4.8 12.8 9.1 7.70001 15.2 4.20001C17.7 2.80001 20.3 1.6 23.1 1C25.6 0.5 28.1 0.3 30.6 0L30.5 0.200012ZM58.2 30.3C58.2 27.8 58 25.4 57.2 23.1C56.6 21.4 56 19.6 55.2 18C53.2 14.1 50.2 10.9 46.6 8.30002C44.1 6.50002 41.3 5.10002 38.4 4.40002C35.6 3.70002 32.7 3.4 29.8 3.5C24.8 3.6 20.1 4.8 15.9 7.5C10.7 10.8 6.9 15.3 4.7 21C3.2 24.9 2.9 28.9 3.2 33C3.4 36.6 4.5 39.9 6.2 43C8.2 46.7 11.2 49.7 14.7 52C17 53.5 19.5 54.7 22.2 55.1C23.8 55.3 24.5 56.5 23.5 57.9C20.3 62.8 17.2 67.7 14.1 72.5C12.9 74.3 11.7 76.1 10.5 77.9C9.2 79.8 9.4 82.1 11.1 83.4C11.7 83.9 12.5 84.3 13.2 84.7C15.9 86.4 18.6 88.1 21.3 89.9C22.5 90.7 23.7 90.8 25 90.4C26.4 89.9 26.9 88.7 27.7 87.6C29 85.7 30.3 83.7 31.5 81.7C33.5 78.6 35.6 75.6 37.6 72.5C39.5 69.7 41.4 66.8 43.2 64C46 59.7 48.9 55.4 51.6 51.1C53.9 47.5 55.7 43.7 56.9 39.7C57.9 36.6 58.4 33.4 58.2 30.2V30.3Z" fill="black"/>
<path d="M132.2 30.3C132.4 33.1 132 35.8 131.4 38.4C131 40 130.4 41.6 129.9 43.1C127.8 49.2 124.3 54.5 120.7 59.8C116.4 66.3 112.1 72.8 107.7 79.3C105.6 82.5 103.5 85.6 101.4 88.8C101 89.4 100.5 90 100.1 90.6C97.8 94.1 93.5 94.4 90.5 92.4C87.9 90.6 85.2 88.9 82.6 87.2C81.7 86.6 80.6 86.1 79.8 85.4C77.4 83.1 76.7 80.1 78.7 76.8C79.8 75 81 73.2 82.2 71.4C84.5 67.8 86.8 64.2 89.1 60.6C89.6 59.9 90 59.2 90.5 58.5C90.9 57.8 90.8 57.6 90.1 57.4C83.9 55.6 79.3 51.7 75.8 46.5C71.6 40.4 70.5 33.6 71.3 26.4C72 20.7 74.2 15.6 78 11.2C82.1 6.5 87.2 2.90002 93.4 1.40002C96.9 0.600017 100.5 0.199992 104.1 0.499992C111 0.999992 117.1 3.5 122.3 8.2C125.3 10.9 127.8 14 129.4 17.7C131.2 21.8 132.4 26 132.1 30.4L132.2 30.3ZM129.1 30.5C129.4 27.8 129 25.1 128.1 22.3C127.8 21.3 127.6 20.2 127 19.2C125.8 17.1 124.5 15.1 123.1 13.2C119.6 8.7 114.8 5.89999 109.4 3.99999C109.2 3.99999 108.9 3.99999 108.6 3.99999C108.2 3.99999 107.8 3.99999 107.5 3.99999C102.3 2.79999 97.1 3.10002 92.1 4.90002C85.2 7.30002 80.3 12 76.8 18.3C75 21.5 74.2 25 74 28.7C74 30.5 74.1 32.4 74.2 34.2C74.4 37.1 75.3 39.8 76.6 42.3C78.4 45.7 81 48.6 84.1 50.9C86.9 53 89.8 54.5 93.2 55.1C94.8 55.4 95.2 56.5 94.3 57.8C93 59.9 91.6 61.9 90.3 64C87.2 68.7 84.3 73.5 81.1 78.2C79.8 80.2 80.4 82.6 82.4 83.8C84.7 85.2 86.8 86.7 89.1 88.1C90.2 88.8 91.3 89.6 92.5 90.2C94.4 91.2 96.5 90.7 97.6 89C101.1 83.7 104.5 78.5 108 73.2C112.1 67 116.3 61 120.2 54.7C122.4 51.3 124.4 47.7 126.2 44C128.2 39.8 129.3 35.3 128.9 30.3L129.1 30.5Z" fill="black"/>
<path d="M58.0648 30.0682C58.2648 33.3682 57.7648 36.5682 56.7648 39.5682C55.5648 43.5682 53.7648 47.3682 51.4648 50.9682C48.6648 55.2682 45.8648 59.5682 43.0648 63.8682C41.1648 66.6682 39.2648 69.5682 37.4648 72.3682C35.4648 75.4682 33.3648 78.4682 31.3648 81.5682C30.0648 83.5682 28.8648 85.5682 27.5648 87.4682C26.8648 88.4682 26.2648 89.7682 24.8648 90.2682C23.5648 90.6682 22.3648 90.5682 21.1648 89.7682C18.4648 87.9682 15.7648 86.2682 13.0648 84.5682C12.3648 84.1682 11.6648 83.7682 10.9648 83.2682C9.26482 81.9682 9.06482 79.7682 10.3648 77.7682C11.5648 75.9682 12.7648 74.1682 13.9648 72.3682C17.0648 67.4682 20.1648 62.5682 23.3648 57.7682C24.2648 56.3682 23.6648 55.1682 22.0648 54.9682C19.3648 54.5682 16.8648 53.4682 14.5648 51.8682C11.0648 49.4682 8.16482 46.5682 6.06482 42.8682C4.36482 39.7682 3.26482 36.4682 3.06482 32.8682C2.86482 28.7682 3.06482 24.6682 4.56482 20.8682C6.76482 15.0682 10.5648 10.6682 15.7648 7.36816C19.9648 4.66816 24.6648 3.46816 29.6648 3.36816C32.5648 3.36816 35.4648 3.56816 38.2648 4.26816C41.2648 5.06816 44.0648 6.36818 46.4648 8.16818C50.0648 10.7682 52.9648 13.9682 55.0648 17.8682C55.8648 19.4682 56.4648 21.2682 57.0648 22.9682C57.8648 25.2682 58.0648 27.7682 58.0648 30.1682V30.0682Z" fill="#F9AB00"/>
<path d="M129.1 30.4C129.5 35.3 128.3 39.8 126.4 44.1C124.7 47.8 122.6 51.4 120.4 54.8C116.4 61 112.2 67.1 108.2 73.3C104.7 78.5 101.3 83.8 97.8001 89.1C96.7001 90.8 94.6001 91.3 92.7001 90.3C91.5001 89.7 90.4001 88.9 89.3001 88.2C87.1001 86.8 84.9001 85.3 82.6001 83.9C80.6001 82.7 80.0001 80.3 81.3001 78.3C84.4001 73.6 87.4001 68.8 90.5001 64.1C91.8001 62 93.2001 60 94.5001 57.9C95.4001 56.5 95.0001 55.5 93.4001 55.2C90.0001 54.5 87.0001 53 84.3001 51C81.2001 48.6 78.6001 45.8 76.8001 42.4C75.5001 39.9 74.6001 37.2 74.4001 34.3C74.3001 32.5 74.1001 30.6 74.2001 28.8C74.4001 25.2 75.2001 21.7 77.0001 18.4C80.5001 12.1 85.4001 7.40001 92.3001 5.00001C97.3001 3.30001 102.4 2.90002 107.7 4.10002C108.1 4.10002 108.4 4.10002 108.8 4.10002C109.1 4.10002 109.4 4.10002 109.6 4.10002C115 5.90002 119.7 8.80003 123.3 13.3C124.8 15.2 126 17.2 127.2 19.3C127.7 20.2 127.9 21.3 128.3 22.4C129.2 25.1 129.6 27.9 129.3 30.6L129.1 30.4Z" fill="#F9AB00"/>
</svg>
