<svg width="198" height="60" viewBox="0 0 198 60" fill="none" xmlns="http://www.w3.org/2000/svg">
<path d="M32.1291 59.2154C24.6305 59.5268 17.536 57.8801 11.5253 53.1936C11.1411 52.8949 10.7643 52.5869 10.3949 52.2697C10.0259 51.9525 9.66461 51.6264 9.31113 51.2914C8.95802 50.9564 8.61307 50.6131 8.27625 50.2615C7.93979 49.9099 7.61203 49.5503 7.29297 49.1827C6.97428 48.8152 6.66447 48.44 6.36355 48.0573C6.06299 47.6746 5.77188 47.2847 5.4902 46.8875C5.2089 46.4907 4.9372 46.0873 4.67514 45.6771C4.41346 45.267 4.16177 44.8507 3.92007 44.428C3.67874 44.0056 3.44778 43.5775 3.22717 43.1438C3.00657 42.71 2.79668 42.2712 2.59755 41.8272C2.39841 41.3833 2.21022 40.9347 2.03292 40.4815C1.85599 40.0284 1.68997 39.5712 1.53488 39.11C1.38016 38.6488 1.23675 38.184 1.10461 37.7158C0.97247 37.2475 0.851783 36.7764 0.742592 36.3023C0.6334 35.8281 0.535881 35.3517 0.450009 34.8728C0.364136 34.3939 0.290095 33.9132 0.227911 33.4307C0.166838 32.9346 0.117993 32.4373 0.0813487 31.9388C0.0447049 31.4402 0.0204711 30.9411 0.00862659 30.4414C-0.00321788 29.9416 -0.00287376 29.4419 0.00971099 28.9422C0.0226659 28.4425 0.0478278 27.9434 0.0852119 27.4449C0.122596 26.9465 0.172404 26.4493 0.234587 25.9533C0.2964 25.4572 0.370614 24.963 0.457227 24.4707C0.543469 23.9783 0.641917 23.4884 0.752588 23.0009C0.86326 22.5134 0.985769 22.0289 1.12013 21.5475C1.25486 21.066 1.40126 20.5882 1.55931 20.1139C1.71736 19.6397 1.88727 19.1696 2.06901 18.7037C2.25038 18.2379 2.44301 17.7768 2.64696 17.3204C2.85127 16.864 3.0667 16.413 3.29322 15.9672C3.51938 15.5215 3.75666 15.0815 4.00502 14.6475C4.25339 14.2134 4.51209 13.7857 4.78118 13.3644C5.05064 12.9432 5.33031 12.5287 5.62013 12.1212C5.90995 11.7137 6.20955 11.3136 6.51899 10.9209C11.2138 4.93748 18.8408 1.01925 26.3749 0.111704C27.1285 0.0621426 27.8829 0.0282756 28.638 0.0101017C36.7074 -0.167288 44.2766 2.57678 50.1396 8.18312C50.492 8.52021 50.8358 8.86584 51.1712 9.22003C51.5061 9.57418 51.8322 9.93643 52.1495 10.3068C52.4667 10.6772 52.7744 11.0552 53.0728 11.4409C53.3711 11.8265 53.6596 12.2193 53.9383 12.6193C54.217 13.0193 54.4858 13.426 54.7445 13.8393C55.0029 14.2527 55.2508 14.6721 55.4885 15.0978C55.7261 15.5235 55.953 15.9548 56.1692 16.3917C56.3853 16.8286 56.5906 17.2707 56.7849 17.7178C56.9789 18.1649 57.1617 18.6166 57.3334 19.0728C57.5052 19.529 57.6655 19.9892 57.8143 20.4534C57.9627 20.9176 58.0996 21.3851 58.2251 21.8561C58.3506 22.3271 58.4644 22.8009 58.5666 23.2775C58.6684 23.7542 58.7583 24.233 58.8364 24.7141C58.9145 25.1952 58.9806 25.678 59.0346 26.1624C59.0887 26.6467 59.1305 27.1321 59.1601 27.6186C59.19 28.1051 59.2078 28.592 59.2134 29.0793C59.2263 29.5722 59.2269 30.0651 59.215 30.558C59.2032 31.0509 59.1792 31.5432 59.1429 32.035C59.1066 32.5267 59.0581 33.0172 58.9974 33.5065C58.9367 33.9958 58.864 34.4833 58.7792 34.969C58.6941 35.4547 58.5969 35.9379 58.4877 36.4188C58.3785 36.8996 58.2575 37.3775 58.1246 37.8523C57.9914 38.3271 57.8466 38.7983 57.6904 39.266C57.5339 39.7336 57.3658 40.197 57.1863 40.6563C57.0064 41.1155 56.8154 41.57 56.6133 42.0198C56.4109 42.4695 56.1975 42.914 55.9732 43.3531C55.7489 43.7922 55.5136 44.2255 55.2675 44.6529C55.0214 45.0803 54.7647 45.5013 54.4974 45.9159C54.2306 46.3308 53.9533 46.7387 53.6657 47.1396C53.3785 47.5404 53.0815 47.9339 52.7746 48.3199C52.4674 48.706 52.1509 49.0841 51.8252 49.4542C51.4991 49.8247 51.1641 50.1867 50.8203 50.5402C46.1965 55.3528 38.8877 59.0743 32.1291 59.2154ZM26.2922 3.5389C18.6847 5.14396 12.04 8.50808 7.67051 15.2233C7.43288 15.585 7.2045 15.9524 6.98538 16.3254C6.76588 16.6984 6.55565 17.0765 6.35467 17.4598C6.15405 17.8432 5.96304 18.2312 5.78167 18.6239C5.59993 19.0167 5.42802 19.4136 5.2659 19.8148C5.10415 20.216 4.95218 20.6209 4.81005 21.0296C4.66792 21.4383 4.53599 21.8502 4.41421 22.2654C4.29244 22.6806 4.181 23.0985 4.07995 23.5191C3.9789 23.9398 3.88822 24.3627 3.8079 24.7878C3.72795 25.2129 3.65838 25.6398 3.59916 26.0683C3.53993 26.4969 3.49126 26.9266 3.45314 27.3575C3.41538 27.7885 3.38816 28.2201 3.3715 28.6524C3.35484 29.0846 3.34893 29.5171 3.35374 29.9497C3.35819 30.3822 3.37338 30.8144 3.39929 31.2462C3.42557 31.6781 3.46221 32.109 3.50922 32.539C3.5566 32.969 3.61452 33.3976 3.68299 33.8248C3.75147 34.252 3.83029 34.6772 3.91949 35.1005C4.01166 35.5289 4.1144 35.9547 4.22766 36.378C4.34093 36.8014 4.46436 37.2216 4.59798 37.6389C4.73197 38.0561 4.87614 38.4698 5.03049 38.8799C5.18484 39.2901 5.34918 39.6962 5.52351 40.0982C5.69785 40.5003 5.88216 40.8978 6.07649 41.2908C6.27044 41.6837 6.47383 42.0717 6.68666 42.4547C6.89986 42.8376 7.12233 43.2151 7.35404 43.5871C7.58611 43.9591 7.82708 44.3252 8.07692 44.6854C8.32677 45.0456 8.58529 45.3993 8.85253 45.7465C9.11977 46.0941 9.39535 46.4348 9.67925 46.7687C9.96352 47.1025 10.2557 47.4292 10.5559 47.7486C10.8561 48.0681 11.1641 48.3799 11.4798 48.6842C11.7951 48.9884 12.1179 49.2847 12.4481 49.573C12.7786 49.8618 13.1158 50.1419 13.4597 50.4136C13.8039 50.6853 14.1544 50.9485 14.5112 51.2031C14.8684 51.4578 15.2315 51.7034 15.6005 51.9399C20.3554 55.008 26.4927 56.6348 32.1475 55.7969C38.9499 55.1684 45.2921 52.0104 49.6827 46.7354C49.9621 46.403 50.2332 46.0639 50.496 45.7182C50.7588 45.3725 51.0131 45.0207 51.2589 44.6627C51.5047 44.3045 51.7414 43.9407 51.969 43.5711C52.1966 43.2014 52.4152 42.8264 52.6247 42.446C52.8342 42.0657 53.0343 41.6805 53.2249 41.2904C53.4155 40.9002 53.5963 40.5057 53.7673 40.1068C53.9387 39.7078 54.1001 39.3049 54.2515 38.898C54.4032 38.4912 54.5446 38.0809 54.6757 37.6671C54.8071 37.2534 54.9283 36.8367 55.0393 36.417C55.1503 35.9973 55.251 35.5752 55.3413 35.1506C55.4317 34.726 55.5116 34.2994 55.5812 33.8709C55.6504 33.4424 55.7093 33.0125 55.7577 32.5811C55.8062 32.1497 55.844 31.7174 55.871 31.2842C55.898 30.851 55.9145 30.4174 55.9204 29.9833C55.9264 29.5493 55.9217 29.1154 55.9065 28.6816C55.8914 28.2478 55.8654 27.8146 55.8288 27.382C55.7888 26.9505 55.7385 26.5202 55.6778 26.0911C55.6167 25.662 55.5453 25.2346 55.4635 24.809C55.3817 24.3834 55.2895 23.96 55.187 23.5389C55.0845 23.1178 54.9718 22.6994 54.8489 22.2838C54.7256 21.8682 54.5926 21.4558 54.4497 21.0467C54.3064 20.6375 54.1534 20.2321 53.9905 19.8305C53.8277 19.4288 53.655 19.0313 53.4725 18.6381C53.2904 18.2449 53.0987 17.8563 52.8973 17.4724C52.696 17.0885 52.4854 16.7097 52.2655 16.3361C52.0456 15.9625 51.8167 15.5944 51.5787 15.232C51.3407 14.8695 51.0942 14.5131 50.8391 14.1626C50.5837 13.8122 50.32 13.4682 50.048 13.1306C49.7759 12.793 49.4957 12.4623 49.2074 12.1384C48.9191 11.8145 48.6231 11.4978 48.3196 11.1883C48.0157 10.8788 47.7046 10.5769 47.3863 10.2826C47.0676 9.98831 46.7421 9.70193 46.4097 9.42351C40.8282 4.79312 33.691 2.82579 26.5054 3.51636C26.4344 3.52306 26.3633 3.53057 26.2922 3.5389Z" fill="#1E1D1E"/>
<path d="M101.485 59.2043C93.9701 59.6046 87.3064 58.1272 81.2735 53.4601C74.9847 48.5948 70.6685 41.5455 69.6691 33.6177C69.6032 33.1212 69.5497 32.6232 69.5086 32.124C69.4672 31.6247 69.4384 31.1248 69.4221 30.6241C69.4058 30.1234 69.4021 29.6226 69.4109 29.1218C69.4195 28.6209 69.4404 28.1206 69.4737 27.6208C69.5074 27.1209 69.5533 26.6222 69.6114 26.1247C69.6699 25.6271 69.7405 25.1313 69.8235 24.6373C69.9064 24.1433 70.0015 23.6516 70.1089 23.1623C70.2162 22.6729 70.3358 22.1866 70.4675 21.7032C70.5989 21.2198 70.7423 20.7399 70.8978 20.2637C71.0532 19.7874 71.2204 19.3153 71.3992 18.8473C71.5783 18.3793 71.7687 17.9161 71.9705 17.4575C72.1726 16.999 72.3857 16.5458 72.61 16.0978C72.8347 15.6499 73.0703 15.2078 73.3168 14.7715C73.5633 14.3353 73.8204 13.9054 74.088 13.4819C74.356 13.0584 74.6343 12.6418 74.9231 12.2321C75.2114 11.8224 75.5099 11.4201 75.8186 11.0252C80.6345 4.85795 88.2026 1.05565 95.9194 0.111739C96.1733 0.0913442 96.4274 0.0742811 96.6817 0.0605489C104.857 -0.379899 112.598 1.96481 118.735 7.46632C119.095 7.78464 119.446 8.11162 119.79 8.44727C120.133 8.78287 120.468 9.12673 120.794 9.47884C121.121 9.83096 121.438 10.1909 121.747 10.5587C122.055 10.9264 122.355 11.3016 122.645 11.6841C122.935 12.0666 123.216 12.456 123.487 12.8523C123.758 13.2486 124.019 13.6513 124.27 14.0605C124.52 14.4697 124.761 14.8848 124.992 15.3058C125.222 15.7268 125.443 16.1533 125.652 16.5851C125.862 17.017 126.06 17.4538 126.248 17.8954C126.436 18.337 126.613 18.783 126.779 19.2334C126.945 19.6838 127.099 20.1379 127.243 20.5959C127.386 21.0539 127.518 21.5151 127.639 21.9796C127.76 22.4441 127.869 22.9113 127.967 23.3812C128.064 23.851 128.15 24.323 128.225 24.7971C128.299 25.2712 128.362 25.7469 128.413 26.2241C128.464 26.7013 128.503 27.1794 128.53 27.6585C128.972 35.8664 126.463 43.6088 120.932 49.7502C116.103 55.1118 108.73 58.8118 101.485 59.2043ZM95.4819 3.53888C87.4969 5.5529 80.9193 8.73953 76.5371 16.0862C76.3139 16.4544 76.0997 16.8279 75.8947 17.2066C75.69 17.5853 75.4946 17.9689 75.3084 18.3573C75.1226 18.7456 74.9464 19.1384 74.7798 19.5355C74.6133 19.9325 74.4567 20.3335 74.3101 20.7383C74.1635 21.1431 74.027 21.5512 73.9004 21.9628C73.7738 22.3743 73.6576 22.7887 73.5517 23.206C73.4458 23.6233 73.3501 24.0429 73.2646 24.4649C73.1795 24.8869 73.1048 25.3107 73.0403 25.7364C72.9763 26.162 72.9227 26.589 72.8793 27.0174C72.836 27.4457 72.8035 27.8749 72.7816 28.3048C72.7598 28.7347 72.7485 29.1649 72.7478 29.5954C72.747 30.0259 72.7568 30.4562 72.7772 30.8862C72.7979 31.3162 72.8292 31.7454 72.871 32.1739C72.9128 32.6023 72.9652 33.0295 73.0281 33.4554C73.0911 33.8813 73.1645 34.3053 73.2486 34.7276C73.3322 35.1499 73.4264 35.5698 73.5312 35.9874C73.6374 36.4118 73.7538 36.8332 73.8804 37.2518C74.0073 37.6703 74.1447 38.0855 74.2923 38.4973C74.4397 38.9091 74.5972 39.317 74.7648 39.721C74.9325 40.1251 75.11 40.5247 75.2973 40.92C75.4846 41.3152 75.6817 41.7056 75.8886 42.0912C76.0951 42.4767 76.3111 42.8569 76.5365 43.2318C76.7619 43.6067 76.9966 43.9758 77.2405 44.3391C77.4844 44.7023 77.737 45.0594 77.9984 45.4101C78.2597 45.761 78.5295 46.1052 78.8079 46.4428C79.0866 46.7804 79.3733 47.1107 79.6679 47.4338C79.9629 47.7574 80.2655 48.0733 80.5757 48.3816C80.8862 48.6899 81.2041 48.9905 81.5295 49.2833C81.8548 49.576 82.1871 49.8605 82.5261 50.1366C82.8655 50.4131 83.2116 50.6809 83.5644 50.94C83.9171 51.1995 84.2759 51.4499 84.6409 51.6912C85.0058 51.9329 85.3766 52.1653 85.753 52.3885C86.0458 52.5644 86.3423 52.7342 86.6424 52.8982C86.9423 53.0618 87.2454 53.2193 87.5519 53.3707C87.8583 53.5221 88.1678 53.6672 88.4802 53.806C88.7926 53.9448 89.1075 54.0771 89.4251 54.203C89.7431 54.3288 90.0633 54.448 90.3857 54.5605C90.7084 54.6734 91.0334 54.7795 91.3606 54.8787C91.6874 54.9782 92.0163 55.0709 92.3472 55.1568C92.6781 55.2427 93.0107 55.3217 93.3449 55.3939C93.6788 55.4664 94.0141 55.5319 94.351 55.5904C94.6878 55.6489 95.0255 55.7006 95.3642 55.7453C95.7033 55.7901 96.0431 55.8279 96.3836 55.8586C96.7237 55.8893 97.0646 55.9132 97.4063 55.9302C97.7475 55.9473 98.0892 55.9571 98.4312 55.9596C98.7728 55.9626 99.1145 55.9585 99.4561 55.9474C99.7977 55.9363 100.139 55.9182 100.48 55.893C100.821 55.8679 101.162 55.8358 101.501 55.797C108.503 55.139 114.767 51.9133 119.272 46.4833C119.546 46.1506 119.811 45.8112 120.068 45.4651C120.325 45.1194 120.573 44.7676 120.813 44.4097C121.054 44.0518 121.285 43.6883 121.507 43.3192C121.729 42.9501 121.942 42.5757 122.146 42.1962C122.35 41.8167 122.545 41.4325 122.73 41.0435C122.915 40.6546 123.091 40.2613 123.257 39.8638C123.423 39.4663 123.579 39.0649 123.725 38.6598C123.872 38.2547 124.008 37.8463 124.135 37.4345C124.261 37.0228 124.378 36.6082 124.484 36.1908C124.59 35.7733 124.687 35.3535 124.773 34.9315C124.858 34.5094 124.934 34.0854 124.999 33.6597C125.064 33.2339 125.119 32.8068 125.163 32.3783C125.207 31.9499 125.241 31.5206 125.265 31.0905C125.288 30.6604 125.301 30.23 125.304 29.7993C125.306 29.3686 125.298 28.9381 125.279 28.5078C125.261 28.0774 125.232 27.6478 125.192 27.2189C125.151 26.7881 125.1 26.3585 125.037 25.9301C124.976 25.5018 124.903 25.0752 124.82 24.6504C124.737 24.2256 124.644 23.8031 124.54 23.3829C124.436 22.9627 124.322 22.5452 124.198 22.1306C124.074 21.7159 123.94 21.3045 123.796 20.8964C123.652 20.4883 123.498 20.0839 123.333 19.6834C123.169 19.2828 122.996 18.8865 122.813 18.4944C122.629 18.1023 122.436 17.7149 122.234 17.3323C122.031 16.9496 121.819 16.5721 121.598 16.1998C121.377 15.8275 121.148 15.4608 120.909 15.0997C120.67 14.7387 120.423 14.3836 120.166 14.0346C119.91 13.6856 119.645 13.3431 119.372 13.0071C119.099 12.671 118.818 12.3419 118.529 12.0195C118.24 11.6972 117.943 11.3822 117.638 11.0743C117.333 10.7666 117.022 10.4664 116.703 10.1738C116.383 9.88124 116.057 9.59666 115.724 9.32005C110.191 4.7655 103.115 2.77536 96.0066 3.4747C95.8311 3.49224 95.6562 3.51364 95.4819 3.53888Z" fill="#1E1D1E"/>
<path d="M170.839 59.2353C163.567 59.7094 156.758 57.97 150.88 53.6266C150.489 53.3356 150.106 53.0353 149.73 52.7255C149.354 52.416 148.986 52.0975 148.626 51.77C148.265 51.4424 147.913 51.1063 147.569 50.7617C147.225 50.4171 146.89 50.0645 146.562 49.704C146.236 49.3431 145.918 48.9745 145.609 48.598C145.3 48.222 145 47.8385 144.71 47.4477C144.419 47.0568 144.139 46.6591 143.867 46.2545C143.596 45.8503 143.336 45.4396 143.085 45.0225C142.834 44.6054 142.593 44.1825 142.362 43.7537C142.132 43.325 141.912 42.8909 141.703 42.4514C141.493 42.012 141.295 41.5677 141.107 41.1186C140.919 40.6696 140.742 40.2163 140.577 39.7586C140.411 39.301 140.256 38.8396 140.113 38.3745C139.97 37.9093 139.838 37.441 139.717 36.9695C139.597 36.4979 139.488 36.0237 139.39 35.5469C139.293 35.0701 139.207 34.5912 139.133 34.1102C139.061 33.6208 139.001 33.1299 138.953 32.6375C138.905 32.1452 138.869 31.652 138.846 31.1579C138.821 30.6638 138.81 30.1694 138.811 29.6747C138.811 29.1801 138.823 28.6857 138.848 28.1917C138.873 27.6976 138.909 27.2044 138.958 26.7122C139.007 26.2199 139.067 25.7291 139.14 25.2398C139.213 24.7505 139.297 24.2633 139.394 23.7781C139.491 23.2929 139.599 22.8104 139.719 22.3306C139.839 21.8507 139.971 21.374 140.115 20.9006C140.258 20.4271 140.413 19.9575 140.579 19.4916C140.746 19.0257 140.924 18.5642 141.113 18.107C141.302 17.6498 141.502 17.1975 141.713 16.7501C141.925 16.3026 142.147 15.8606 142.379 15.4241C142.612 14.9875 142.856 14.5568 143.11 14.1321C143.363 13.7074 143.628 13.2892 143.902 12.8774C144.176 12.4655 144.46 12.0607 144.755 11.6627C149.635 5.10832 157.182 1.28359 165.167 0.111654C165.609 0.0796 166.052 0.0536906 166.494 0.0339251C174.724 -0.330792 182.485 2.24338 188.6 7.84433C188.949 8.16787 189.29 8.4997 189.623 8.83982C189.956 9.17995 190.28 9.52793 190.596 9.88379C190.912 10.2396 191.219 10.6029 191.517 10.9737C191.815 11.3445 192.105 11.7223 192.384 12.1071C192.665 12.4919 192.935 12.8832 193.196 13.2811C193.457 13.679 193.708 14.0831 193.949 14.4932C194.19 14.9033 194.421 15.319 194.642 15.7404C194.863 16.1617 195.073 16.5881 195.274 17.0197C195.474 17.4512 195.664 17.8874 195.843 18.3281C196.022 18.7689 196.19 19.2137 196.347 19.6626C196.504 20.1116 196.651 20.5641 196.786 21.0201C196.922 21.4761 197.046 21.9351 197.159 22.3972C197.272 22.8593 197.373 23.3238 197.463 23.7907C197.554 24.2577 197.633 24.7266 197.701 25.1975C197.768 25.6683 197.824 26.1405 197.869 26.614C197.914 27.0876 197.947 27.5619 197.968 28.0371C198.315 36.3659 195.74 43.8639 190.079 49.9933C185.288 55.1817 177.976 58.9427 170.839 59.2353ZM164.905 3.53885C156.853 5.63194 150.216 8.76048 145.821 16.2599C145.602 16.6315 145.392 17.0083 145.191 17.3902C144.99 17.7721 144.799 18.1587 144.618 18.55C144.436 18.9413 144.264 19.3367 144.102 19.7364C143.94 20.1361 143.788 20.5396 143.645 20.9467C143.503 21.3539 143.371 21.7643 143.248 22.1779C143.126 22.5915 143.014 23.0079 142.912 23.427C142.811 23.8462 142.719 24.2675 142.638 24.6911C142.557 25.1147 142.486 25.5401 142.426 25.9671C142.366 26.3942 142.316 26.8225 142.277 27.252C142.238 27.6815 142.209 28.1117 142.191 28.5425C142.173 28.9735 142.166 29.4045 142.169 29.8358C142.172 30.2671 142.186 30.698 142.21 31.1286C142.234 31.5592 142.269 31.989 142.314 32.4179C142.36 32.8467 142.415 33.2743 142.482 33.7004C142.548 34.1266 142.625 34.5509 142.712 34.9733C142.799 35.3956 142.897 35.8156 143.005 36.2332C143.117 36.6562 143.239 37.0761 143.372 37.493C143.505 37.91 143.648 38.3234 143.801 38.7334C143.954 39.1434 144.117 39.5494 144.289 39.9514C144.462 40.3534 144.645 40.751 144.837 41.1441C145.029 41.5372 145.231 41.9254 145.443 42.3087C145.654 42.6919 145.874 43.0698 146.104 43.4423C146.334 43.8148 146.572 44.1815 146.82 44.5424C147.068 44.9032 147.324 45.2577 147.589 45.606C147.854 45.9543 148.127 46.296 148.409 46.6309C148.691 46.9663 148.981 47.2942 149.279 47.6148C149.576 47.9357 149.881 48.2492 150.195 48.5553C150.508 48.8614 150.828 49.1595 151.156 49.4497C151.484 49.7399 151.818 50.0222 152.159 50.2964C152.501 50.5703 152.849 50.8357 153.204 51.0926C153.558 51.3498 153.919 51.598 154.285 51.8371C154.652 52.0766 155.024 52.307 155.402 52.5284C160.293 55.3716 165.579 56.4304 171.171 55.7758C178.324 54.9308 184.593 51.6428 189.091 45.9525C189.358 45.6131 189.616 45.2671 189.865 44.9147C190.115 44.5625 190.356 44.2043 190.588 43.8402C190.82 43.4762 191.043 43.1066 191.257 42.7316C191.471 42.3566 191.676 41.9765 191.871 41.5915C192.066 41.2064 192.252 40.8168 192.428 40.4226C192.604 40.0285 192.771 39.6302 192.927 39.2279C193.084 38.8256 193.23 38.4197 193.367 38.0102C193.503 37.6007 193.63 37.1881 193.746 36.7724C193.863 36.3567 193.968 35.9383 194.064 35.5174C194.16 35.0965 194.245 34.6735 194.32 34.2484C194.395 33.8233 194.459 33.3966 194.513 32.9683C194.567 32.5401 194.611 32.1108 194.644 31.6804C194.676 31.25 194.698 30.8191 194.71 30.3876C194.722 29.9561 194.723 29.5246 194.713 29.0931C194.704 28.6616 194.684 28.2306 194.652 27.8C194.622 27.3695 194.58 26.9399 194.529 26.5114C194.476 26.0842 194.414 25.6584 194.34 25.2342C194.267 24.81 194.184 24.3878 194.09 23.9677C193.996 23.5475 193.892 23.1299 193.778 22.7148C193.664 22.2998 193.539 21.8877 193.405 21.4787C193.271 21.0697 193.126 20.6642 192.972 20.2622C192.818 19.8602 192.655 19.4622 192.481 19.0682C192.307 18.6742 192.124 18.2847 191.931 17.8996C191.739 17.5145 191.537 17.1344 191.326 16.7592C191.115 16.3839 190.894 16.014 190.665 15.6495C190.436 15.285 190.198 14.9264 189.951 14.5735C189.704 14.2205 189.449 13.8739 189.185 13.5334C188.922 13.1929 188.65 12.8591 188.37 12.5319C188.09 12.2047 187.802 11.8845 187.506 11.5713C187.211 11.2582 186.907 10.9524 186.597 10.654C186.286 10.3556 185.969 10.0649 185.644 9.78201C185.319 9.49912 184.988 9.22429 184.649 8.95753C179.238 4.71456 171.823 2.68277 164.974 3.52997L164.905 3.53885Z" fill="#1E1D1E"/>
<path d="M32.1472 55.7969C26.4924 56.6347 20.3551 55.008 15.6003 51.9399C15.2313 51.7033 14.8682 51.4578 14.511 51.2031C14.1542 50.9484 13.8037 50.6853 13.4594 50.4136C13.1156 50.1419 12.7784 49.8617 12.4478 49.573C12.1177 49.2847 11.7949 48.9884 11.4795 48.6841C11.1638 48.3799 10.8559 48.068 10.5557 47.7486C10.2555 47.4292 9.96328 47.1025 9.67902 46.7686C9.39512 46.4348 9.11954 46.0941 8.8523 45.7465C8.58506 45.3993 8.32653 45.0456 8.07669 44.6853C7.82684 44.3252 7.58588 43.9591 7.3538 43.5871C7.1221 43.2151 6.89963 42.8376 6.68643 42.4547C6.4736 42.0717 6.27021 41.6837 6.07625 41.2907C5.88193 40.8978 5.69762 40.5002 5.52328 40.0982C5.34894 39.6961 5.1846 39.2901 5.03025 38.8799C4.87591 38.4698 4.73174 38.0561 4.59775 37.6388C4.46413 37.2216 4.34069 36.8013 4.22743 36.378C4.11417 35.9547 4.01142 35.5288 3.91926 35.1005C3.83005 34.6772 3.75123 34.2519 3.68276 33.8248C3.61428 33.3976 3.55636 32.969 3.50898 32.539C3.46198 32.109 3.42533 31.678 3.39905 31.2462C3.37314 30.8144 3.35778 30.3822 3.35297 29.9496C3.34853 29.517 3.35461 29.0846 3.37127 28.6523C3.38792 28.22 3.41515 27.7884 3.4529 27.3575C3.49103 26.9265 3.5397 26.4968 3.59892 26.0683C3.65814 25.6397 3.72772 25.2129 3.80767 24.7877C3.88799 24.3626 3.97867 23.9397 4.07971 23.5191C4.18076 23.0984 4.2922 22.6805 4.41398 22.2654C4.53576 21.8502 4.66768 21.4382 4.80982 21.0296C4.95195 20.6209 5.10392 20.216 5.26567 19.8148C5.42779 19.4136 5.59969 19.0166 5.78143 18.6239C5.9628 18.2312 6.15382 17.8431 6.35443 17.4598C6.55542 17.0765 6.76565 16.6983 6.98514 16.3253C7.20427 15.9524 7.43265 15.585 7.67028 15.2232C12.0398 8.50805 18.6845 5.14392 26.292 3.53886C26.3631 3.53054 26.4341 3.52302 26.5052 3.51632C33.6907 2.82575 40.8279 4.79308 46.4095 9.42348C46.7418 9.70189 47.0674 9.98827 47.3861 10.2826C47.7044 10.5769 48.0155 10.8788 48.3194 11.1883C48.6229 11.4977 48.9188 11.8144 49.2072 12.1383C49.4955 12.4622 49.7757 12.793 50.0477 13.1306C50.3198 13.4682 50.5835 13.8122 50.8389 14.1626C51.0939 14.513 51.3405 14.8695 51.5785 15.232C51.8165 15.5944 52.0454 15.9624 52.2653 16.3361C52.4851 16.7097 52.6957 17.0884 52.8971 17.4723C53.0984 17.8563 53.2902 18.2448 53.4723 18.6381C53.6548 19.0313 53.8274 19.4288 53.9903 19.8304C54.1531 20.2321 54.3062 20.6375 54.4495 21.0466C54.5923 21.4558 54.7254 21.8682 54.8487 22.2838C54.9715 22.6994 55.0843 23.1178 55.1868 23.5389C55.2893 23.96 55.3815 24.3834 55.4633 24.809C55.5451 25.2346 55.6165 25.6619 55.6776 26.091C55.7383 26.5201 55.7886 26.9505 55.8286 27.382C55.8652 27.8146 55.8911 28.2477 55.9063 28.6815C55.9215 29.1153 55.9261 29.5492 55.9202 29.9833C55.9143 30.4173 55.8978 30.851 55.8708 31.2842C55.8438 31.7174 55.806 32.1497 55.7575 32.5811C55.709 33.0125 55.6502 33.4424 55.581 33.8709C55.5114 34.2994 55.4314 34.726 55.3411 35.1505C55.2508 35.5751 55.1501 35.9973 55.0391 36.417C54.928 36.8366 54.8068 37.2533 54.6754 37.6671C54.5444 38.0809 54.403 38.4912 54.2513 38.898C54.0999 39.3049 53.9385 39.7078 53.7671 40.1067C53.5961 40.5057 53.4153 40.9002 53.2247 41.2903C53.034 41.6804 52.834 42.0656 52.6245 42.446C52.415 42.8264 52.1964 43.2014 51.9688 43.571C51.7411 43.9407 51.5044 44.3045 51.2587 44.6626C51.0129 45.0206 50.7586 45.3725 50.4958 45.7182C50.233 46.0639 49.9619 46.4029 49.6824 46.7353C45.2918 52.0104 38.9497 55.1684 32.1472 55.7969Z" fill="#FF0000"/>
<path d="M101.501 55.7968C101.162 55.8357 100.822 55.8677 100.48 55.8929C100.139 55.918 99.7981 55.9362 99.4564 55.9473C99.1148 55.9584 98.7731 55.9625 98.4315 55.9595C98.0895 55.9569 97.7479 55.9471 97.4066 55.9301C97.0649 55.913 96.7241 55.8892 96.3839 55.8584C96.0434 55.8277 95.7036 55.79 95.3645 55.7452C95.0259 55.7004 94.6881 55.6488 94.3513 55.5903C94.0144 55.5318 93.6791 55.4663 93.3452 55.3937C93.011 55.3216 92.6784 55.2425 92.3475 55.1567C92.0166 55.0708 91.6878 54.9781 91.3609 54.8785C91.0337 54.7793 90.7089 54.6733 90.3865 54.5604C90.0638 54.4478 89.7434 54.3287 89.4254 54.2028C89.1079 54.077 88.7929 53.9446 88.4805 53.8058C88.1681 53.667 87.8587 53.5219 87.5522 53.3706C87.2457 53.2192 86.9426 53.0617 86.6428 52.8981C86.3426 52.7341 86.0461 52.5642 85.7533 52.3884C85.3769 52.1652 85.0062 51.9327 84.6412 51.691C84.2762 51.4497 83.9174 51.1993 83.5647 50.9398C83.2119 50.6807 82.866 50.413 82.527 50.1365C82.1876 49.8603 81.8552 49.5759 81.5298 49.2831C81.2045 48.9903 80.8865 48.6898 80.576 48.3814C80.2658 48.0731 79.9632 47.7572 79.6682 47.4337C79.3736 47.1106 79.0869 46.7802 78.8082 46.4426C78.5298 46.1051 78.26 45.7608 77.9987 45.41C77.7374 45.0592 77.4848 44.7022 77.2408 44.3389C76.9969 43.9756 76.7622 43.6065 76.5368 43.2316C76.3114 42.8568 76.0954 42.4766 75.8889 42.091C75.682 41.7055 75.4849 41.3151 75.2976 40.9198C75.1103 40.5246 74.9328 40.1249 74.7652 39.7209C74.5975 39.3169 74.44 38.909 74.2927 38.4972C74.145 38.0854 74.0077 37.6702 73.8807 37.2516C73.7541 36.833 73.6377 36.4116 73.5315 35.9873C73.4267 35.5697 73.3325 35.1497 73.2489 34.7274C73.1649 34.3052 73.0914 33.8811 73.0285 33.4552C72.9655 33.0294 72.9132 32.6022 72.8713 32.1737C72.8295 31.7453 72.7982 31.316 72.7775 30.886C72.7571 30.456 72.7473 30.0258 72.7481 29.5953C72.7488 29.1648 72.7601 28.7346 72.7819 28.3046C72.8038 27.8747 72.8364 27.4456 72.8797 27.0172C72.923 26.5889 72.9766 26.1619 73.0407 25.7362C73.1051 25.3105 73.1798 24.8867 73.265 24.4647C73.3505 24.0427 73.4462 23.6231 73.552 23.2058C73.6579 22.7885 73.7741 22.3741 73.9007 21.9626C74.0273 21.5511 74.1639 21.1429 74.3104 20.7381C74.457 20.3333 74.6136 19.9324 74.7801 19.5353C74.9467 19.1382 75.1229 18.7455 75.3087 18.3571C75.4949 17.9687 75.6903 17.5852 75.895 17.2064C76.1001 16.8277 76.3142 16.4542 76.5374 16.0861C80.9197 8.73937 87.4972 5.55274 95.4822 3.53872C95.6566 3.51348 95.8315 3.49208 96.0069 3.47454C103.116 2.7752 110.191 4.76534 115.724 9.31989C116.057 9.5965 116.383 9.88108 116.703 10.1736C117.022 10.4662 117.334 10.7664 117.638 11.0742C117.943 11.382 118.24 11.6971 118.529 12.0194C118.818 12.3417 119.1 12.6709 119.372 13.0069C119.646 13.343 119.91 13.6855 120.166 14.0345C120.423 14.3835 120.67 14.7385 120.909 15.0996C121.148 15.4606 121.378 15.8273 121.599 16.1997C121.82 16.572 122.031 16.9495 122.234 17.3321C122.436 17.7148 122.629 18.1021 122.813 18.4942C122.996 18.8863 123.17 19.2826 123.334 19.6832C123.498 20.0838 123.652 20.4881 123.796 20.8962C123.941 21.3043 124.075 21.7157 124.199 22.1304C124.323 22.5451 124.437 22.9625 124.541 23.3827C124.644 23.803 124.738 24.2255 124.821 24.6503C124.904 25.0751 124.976 25.5016 125.038 25.93C125.1 26.3583 125.152 26.7879 125.193 27.2187C125.232 27.6477 125.261 28.0773 125.28 28.5076C125.298 28.9379 125.306 29.3685 125.304 29.7992C125.302 30.2299 125.289 30.6603 125.265 31.0904C125.242 31.5204 125.208 31.9497 125.164 32.3782C125.119 32.8066 125.065 33.2337 124.999 33.6595C124.934 34.0853 124.859 34.5092 124.773 34.9313C124.687 35.3534 124.591 35.7732 124.484 36.1906C124.378 36.608 124.262 37.0226 124.135 37.4344C124.008 37.8461 123.872 38.2545 123.726 38.6597C123.579 39.0648 123.423 39.4661 123.257 39.8636C123.091 40.2612 122.915 40.6544 122.73 41.0434C122.545 41.4323 122.35 41.8166 122.146 42.1961C121.942 42.5756 121.729 42.9499 121.507 43.319C121.285 43.6882 121.054 44.0517 120.814 44.4096C120.574 44.7675 120.325 45.1192 120.069 45.4649C119.811 45.811 119.546 46.1504 119.272 46.4832C114.767 51.9131 108.503 55.1389 101.501 55.7968Z" fill="#FF0000"/>
<path d="M171.171 55.7757C165.579 56.4303 160.293 55.3715 155.402 52.5283C155.024 52.3069 154.652 52.0765 154.286 51.837C153.919 51.5979 153.558 51.3497 153.204 51.0925C152.849 50.8356 152.501 50.5702 152.16 50.2963C151.818 50.022 151.484 49.7398 151.156 49.4496C150.828 49.1594 150.508 48.8613 150.195 48.5552C149.882 48.2491 149.576 47.9356 149.279 47.6147C148.981 47.2941 148.691 46.9662 148.409 46.6308C148.127 46.2959 147.854 45.9542 147.589 45.6059C147.324 45.2576 147.068 44.9031 146.82 44.5423C146.573 44.1814 146.334 43.8147 146.104 43.4423C145.874 43.0698 145.654 42.6919 145.443 42.3086C145.231 41.9253 145.029 41.5371 144.837 41.144C144.645 40.7509 144.462 40.3533 144.289 39.9513C144.117 39.5493 143.954 39.1433 143.801 38.7333C143.648 38.3233 143.505 37.9099 143.372 37.4929C143.239 37.076 143.117 36.6561 143.005 36.2331C142.897 35.8155 142.799 35.3955 142.712 34.9732C142.625 34.5508 142.548 34.1265 142.482 33.7003C142.415 33.2742 142.36 32.8466 142.315 32.4177C142.269 31.9889 142.234 31.5591 142.21 31.1285C142.186 30.6979 142.172 30.267 142.169 29.8357C142.166 29.4044 142.173 28.9734 142.191 28.5424C142.21 28.1116 142.238 27.6814 142.277 27.2519C142.316 26.8223 142.366 26.3941 142.426 25.967C142.487 25.54 142.557 25.1146 142.638 24.691C142.719 24.2674 142.811 23.8461 142.913 23.4269C143.014 23.0078 143.126 22.5914 143.248 22.1778C143.371 21.7642 143.503 21.3538 143.645 20.9466C143.788 20.5395 143.94 20.136 144.102 19.7363C144.265 19.3366 144.436 18.9412 144.618 18.5499C144.8 18.1586 144.991 17.772 145.191 17.3901C145.392 17.0082 145.602 16.6314 145.821 16.2598C150.216 8.76038 156.853 5.63183 164.905 3.53875L164.974 3.52987C171.823 2.68267 179.238 4.71446 184.649 8.95743C184.988 9.22419 185.319 9.49901 185.644 9.78191C185.969 10.0648 186.286 10.3555 186.597 10.6539C186.908 10.9523 187.211 11.2581 187.506 11.5712C187.802 11.8844 188.09 12.2046 188.37 12.5318C188.65 12.859 188.922 13.1928 189.185 13.5333C189.449 13.8738 189.705 14.2204 189.951 14.5734C190.198 14.9263 190.436 15.2849 190.665 15.6494C190.895 16.0139 191.115 16.3838 191.326 16.7591C191.537 17.1343 191.739 17.5144 191.931 17.8995C192.124 18.2846 192.308 18.6741 192.481 19.0681C192.655 19.4621 192.819 19.8601 192.972 20.2621C193.126 20.6641 193.271 21.0696 193.405 21.4786C193.539 21.8876 193.664 22.2997 193.778 22.7147C193.892 23.1298 193.996 23.5474 194.09 23.9676C194.184 24.3877 194.267 24.8099 194.341 25.2341C194.414 25.6583 194.477 26.0841 194.529 26.5113C194.581 26.9398 194.622 27.3694 194.653 27.7999C194.684 28.2304 194.704 28.6615 194.713 29.093C194.723 29.5245 194.722 29.956 194.71 30.3875C194.698 30.819 194.676 31.2499 194.644 31.6803C194.611 32.1107 194.567 32.54 194.513 32.9683C194.46 33.3965 194.395 33.8232 194.32 34.2483C194.245 34.6734 194.16 35.0964 194.064 35.5173C193.969 35.9382 193.863 36.3566 193.746 36.7723C193.63 37.188 193.503 37.6006 193.367 38.0101C193.23 38.4196 193.084 38.8255 192.928 39.2278C192.771 39.6301 192.605 40.0284 192.428 40.4225C192.252 40.8167 192.067 41.2063 191.872 41.5914C191.676 41.9764 191.471 42.3565 191.257 42.7315C191.044 43.1065 190.821 43.4761 190.588 43.8401C190.356 44.2042 190.115 44.5624 189.866 44.9146C189.616 45.267 189.358 45.6129 189.091 45.9524C184.593 51.6427 178.324 54.9307 171.171 55.7757Z" fill="#FF0000"/>
</svg>
