<svg width="364" height="132" viewBox="0 0 364 132" fill="none" xmlns="http://www.w3.org/2000/svg">
<path d="M363.708 67.5091C362.808 88.7091 353.708 106.809 335.308 120.009C328.908 124.609 321.808 127.809 314.208 129.809C306.608 131.809 298.808 132.409 291.008 131.609C276.408 130.109 263.708 124.309 252.808 114.509C248.308 110.509 244.508 105.809 241.308 100.609C239.908 98.4091 239.508 98.4091 238.108 100.609C231.508 111.109 222.708 119.209 211.608 124.809C203.608 128.809 195.108 131.209 186.108 131.709C178.908 132.109 171.808 131.509 164.908 129.709C154.708 127.009 145.608 122.109 137.708 115.009C132.908 110.709 128.908 105.909 125.508 100.409C124.308 98.4091 123.808 98.4091 122.508 100.409C117.908 107.509 112.408 113.709 105.608 118.709C99.7077 123.109 93.3077 126.309 86.3077 128.609C80.2077 130.709 73.9077 131.609 67.5077 131.709C60.4077 131.909 53.5077 130.909 46.6077 128.709C39.1077 126.309 32.2077 122.909 26.0077 118.109C13.6077 108.509 5.40767 96.0091 1.80767 80.6091C0.00766814 73.3091 -0.492335 65.9091 0.507665 58.5091C2.80766 41.6091 10.6077 27.5091 23.4077 16.3091C31.1077 9.60909 39.9077 4.90909 49.8077 2.20909C56.4077 0.40909 63.1077 -0.290909 69.9077 0.109091C85.1077 1.10909 98.5077 6.60909 110.108 16.6091C115.008 20.9091 119.208 25.9091 122.608 31.4091C123.808 33.3091 124.408 33.3091 125.608 31.4091C131.908 21.3091 140.308 13.4091 150.808 7.80909C158.708 3.60909 167.008 1.10909 175.908 0.309088C195.508 -1.29091 212.508 4.70909 227.008 17.8091C231.408 21.7091 235.008 26.3091 238.108 31.3091C238.208 31.5091 238.408 31.7091 238.508 31.9091C239.508 33.1091 239.908 33.0091 240.908 31.9091C243.408 28.5091 245.708 24.9091 248.608 21.8091C258.808 10.5091 271.508 3.50908 286.408 1.00908C301.908 -1.59091 316.608 1.10909 330.208 9.10909C340.608 15.2091 348.908 23.5091 354.908 33.9091C360.608 43.8091 363.608 54.5091 363.808 67.3091L363.708 67.5091ZM3.00767 70.1091C2.90767 74.7091 4.80766 82.8091 8.00766 90.6091C11.7077 99.6091 17.3077 107.109 24.6077 113.509C30.4077 118.609 36.9077 122.409 44.1077 125.109C49.2077 127.009 54.4077 128.209 59.8077 128.709C65.2077 129.209 70.5077 129.109 75.8077 128.309C80.6077 127.609 85.2077 126.309 89.7077 124.409C100.608 120.009 109.608 113.109 116.608 103.709C118.108 101.709 119.308 99.6091 120.808 97.7091C122.608 95.5091 125.908 95.9091 127.408 98.3091C130.708 103.609 134.508 108.409 139.108 112.609C148.308 121.009 159.108 126.309 171.408 128.209C181.408 129.809 191.408 129.209 201.208 126.009C208.508 123.609 215.108 120.009 221.108 115.309C227.008 110.609 231.908 105.009 235.908 98.5091C236.408 97.7091 237.408 96.8091 238.308 96.5091C240.508 95.7091 242.108 96.5091 243.408 98.7091C247.008 104.509 251.308 109.709 256.608 114.109C260.708 117.509 265.208 120.509 270.008 122.909C274.508 125.009 279.108 126.509 284.008 127.609C291.508 129.309 299.008 129.409 306.508 128.509C314.308 127.509 321.608 124.809 328.508 120.909C336.908 116.209 343.708 109.809 349.308 102.009C353.808 95.7091 357.008 88.7091 358.708 81.1091C360.208 74.8091 360.908 68.5091 360.308 62.0091C359.808 56.5091 358.808 51.1091 356.908 46.0091C354.508 39.2091 350.808 33.0091 346.208 27.4091C341.108 21.1091 335.108 16.1091 328.208 12.0091C324.808 10.0091 321.108 8.50909 317.508 7.10909C311.808 4.80909 305.808 3.80909 299.608 3.60909C293.108 3.40909 286.708 4.10908 280.508 5.70908C270.608 8.40908 262.008 13.4091 254.408 20.2091C250.008 24.2091 246.308 28.8091 243.308 33.9091C241.408 37.1091 237.908 37.1091 235.808 33.9091C234.708 32.2091 233.508 30.6091 232.308 29.0091C227.308 22.3091 221.208 16.8091 214.208 12.4091C207.108 7.90909 199.208 5.40909 190.908 4.10909C184.308 3.10909 177.608 3.30909 171.008 4.30909C164.808 5.20909 158.808 7.20909 153.208 10.1091C142.408 15.6091 133.808 23.5091 127.408 33.9091C125.408 37.1091 122.208 37.1091 119.908 33.9091C118.408 31.8091 116.908 29.6091 115.308 27.5091C110.508 21.3091 104.708 16.3091 98.1077 12.2091C90.8077 7.70908 82.8077 5.10909 74.3077 3.90909C67.9077 3.00909 61.4077 3.20909 55.1077 4.30909C49.2077 5.30909 43.6077 7.20908 38.2077 10.0091C28.6077 14.9091 20.6077 21.7091 14.4077 30.4091C6.80767 41.1091 2.80766 53.1091 2.70766 70.2091L3.00767 70.1091Z" fill="#231F20"/>
<path d="M3.00781 70.1091C3.00781 52.9091 7.00781 41.0091 14.7078 30.3091C20.9078 21.6091 28.9078 14.8091 38.5078 9.90911C43.9078 7.20911 49.5078 5.2091 55.4078 4.2091C61.8078 3.1091 68.2078 2.9091 74.6078 3.8091C83.1078 5.0091 91.1078 7.6091 98.4078 12.1091C105.008 16.2091 110.808 21.2091 115.608 27.4091C117.208 29.5091 118.708 31.6091 120.208 33.8091C122.408 36.9091 125.708 36.9091 127.708 33.8091C134.108 23.4091 142.608 15.5091 153.508 10.0091C159.108 7.1091 165.108 5.2091 171.308 4.2091C177.908 3.2091 184.508 3.0091 191.208 4.0091C199.508 5.3091 207.408 7.8091 214.508 12.3091C221.508 16.7091 227.608 22.3091 232.608 28.9091C233.808 30.5091 235.008 32.1091 236.108 33.8091C238.208 36.9091 241.608 36.9091 243.608 33.8091C246.708 28.7091 250.308 24.1091 254.708 20.1091C262.308 13.3091 270.908 8.2091 280.808 5.6091C287.108 3.9091 293.408 3.3091 299.908 3.5091C306.008 3.7091 312.008 4.7091 317.808 7.0091C321.408 8.5091 325.208 9.90911 328.508 11.9091C335.308 16.0091 341.408 21.1091 346.508 27.3091C351.108 32.9091 354.808 39.1091 357.208 45.9091C359.008 51.1091 360.108 56.4091 360.608 61.9091C361.108 68.4091 360.408 74.7091 359.008 81.0091C357.208 88.6091 354.008 95.6091 349.608 101.909C344.108 109.709 337.208 116.109 328.808 120.809C321.908 124.709 314.608 127.409 306.808 128.409C299.308 129.409 291.808 129.309 284.308 127.509C279.508 126.409 274.808 124.909 270.308 122.809C265.408 120.509 261.008 117.509 256.908 114.009C251.608 109.609 247.308 104.409 243.708 98.6091C242.408 96.5091 240.808 95.7091 238.608 96.4091C237.708 96.7091 236.708 97.5091 236.208 98.4091C232.208 104.809 227.308 110.509 221.408 115.209C215.408 119.909 208.808 123.409 201.508 125.909C191.708 129.109 181.808 129.709 171.708 128.109C159.408 126.209 148.608 120.909 139.408 112.509C134.808 108.309 131.008 103.409 127.708 98.2091C126.208 95.8091 122.908 95.4091 121.108 97.6091C119.608 99.5091 118.408 101.709 116.908 103.609C109.808 113.009 100.808 119.909 90.0078 124.309C85.5078 126.109 80.9078 127.509 76.1078 128.209C70.8078 129.009 65.4078 129.109 60.1078 128.609C54.7078 128.109 49.4078 126.909 44.4078 125.009C37.2078 122.309 30.7078 118.509 24.9078 113.409C17.6078 107.009 12.0078 99.4091 8.30782 90.5091C5.10782 82.7091 3.20782 74.6091 3.30782 70.0091L3.00781 70.1091Z" fill="#4285F4"/>
</svg>
