<svg width="165" height="152" viewBox="0 0 165 152" fill="none" xmlns="http://www.w3.org/2000/svg">
<path d="M88.7404 151.222C66.3357 152.345 44.8215 147.072 27.3906 132.49C12.9025 120.37 2.02182 103.277 0.33844 84.1685C-1.43492 64.0393 3.71839 45.1497 16.7992 29.566C31.8134 11.6791 53.2942 2.21225 76.3214 0.229557C76.8356 0.133037 77.3808 0.141678 77.9049 0.121843C82.824 -0.0643256 87.7918 -0.094801 92.6898 0.450738C110.513 2.43553 128.343 10.5045 141.477 22.7303C142.348 23.538 143.199 24.3664 144.029 25.2154C144.86 26.0645 145.67 26.9332 146.458 27.8215C147.246 28.71 148.013 29.617 148.757 30.5427C149.502 31.4684 150.223 32.4117 150.922 33.3725C151.62 34.3332 152.295 35.3104 152.946 36.3039C153.597 37.2975 154.224 38.3063 154.826 39.3304C155.428 40.3544 156.004 41.3924 156.555 42.4445C157.107 43.4966 157.632 44.5614 158.132 45.6391C158.632 46.7167 159.105 47.8058 159.552 48.9065C159.999 50.0071 160.418 51.118 160.811 52.239C161.204 53.3601 161.569 54.4901 161.907 55.6289C162.244 56.7677 162.554 57.914 162.836 59.0679C163.119 60.2217 163.372 61.3818 163.598 62.548C163.823 63.7142 164.02 64.8852 164.189 66.061C164.358 67.2368 164.498 68.4161 164.609 69.5987C164.72 70.7813 164.803 71.9659 164.857 73.1525C164.894 74.3397 164.903 75.5269 164.883 76.7141C164.862 77.902 164.813 79.0884 164.735 80.2734C164.656 81.4584 164.549 82.6408 164.412 83.8206C164.275 85.0004 164.11 86.1761 163.917 87.3478C163.723 88.5195 163.5 89.686 163.249 90.8473C162.997 92.0079 162.718 93.1619 162.41 94.3092C162.102 95.4565 161.766 96.5953 161.402 97.7256C161.039 98.8566 160.648 99.9777 160.229 101.089C159.811 102.201 159.365 103.301 158.892 104.391C158.42 105.481 157.921 106.558 157.395 107.622C156.87 108.688 156.319 109.74 155.742 110.778C155.165 111.816 154.563 112.84 153.937 113.848C153.31 114.857 152.658 115.85 151.982 116.827C151.306 117.803 150.607 118.763 149.884 119.706C149.162 120.648 148.416 121.572 147.648 122.478C146.881 123.384 146.091 124.27 145.279 125.138C131.238 140.149 109.378 150.553 88.7404 151.222ZM81.5275 3.7888C73.8912 5.09153 68.91 9.2924 64.5578 15.4423C58.1133 24.5486 54.3715 35.6742 52.2392 46.5381C62.7215 46.8721 73.2452 46.7197 83.7338 46.7013C93.3137 46.6603 102.909 46.7309 112.488 46.5498C109.213 32.8595 104.284 14.3915 91.3279 6.55794C88.3968 4.78591 84.9682 3.73893 81.5275 3.7888ZM68.3838 4.92454C45.0125 9.51225 27.3228 20.0299 13.9088 39.9545C12.988 41.3223 10.5479 44.5966 10.7219 46.2144L11.2489 46.336C23.4809 47.6537 36.2145 46.6361 48.5149 46.617C50.6995 35.8065 54.1091 24.8518 59.9923 15.4481C62.1465 12.0049 64.6876 9.14856 67.6139 6.3495C68.0484 5.93394 68.688 5.54033 68.3838 4.92454ZM95.9145 4.83699C95.9511 4.88919 95.9865 4.94182 96.0231 4.99346C97.867 7.58464 100.501 9.61343 102.394 12.1964C110.029 22.6121 113.407 34.337 116.413 46.7048L138.867 46.7282C143.962 46.7299 149.178 46.9254 154.243 46.3382C146.428 29.064 129.685 15.6897 112.222 9.10168C106.896 7.09284 101.525 5.75764 95.9145 4.83699ZM56.7968 50.1255L51.3263 50.2722C49.2146 67.7337 49.0925 83.8051 51.4138 101.224L95.1288 101.266C99.4838 101.277 103.842 101.499 108.195 101.463C109.825 101.421 111.46 101.412 113.079 101.201C116.473 84.8789 116.283 66.6496 113.136 50.2636C94.4096 49.9389 75.518 49.5228 56.7968 50.1255ZM8.46424 50.2284C2.53955 69.1646 1.57213 82.3434 8.45537 101.239L45.1676 101.233C46.0662 101.205 46.6886 101.307 47.4732 100.833C47.8017 97.0995 46.1426 87.6282 45.811 83.1269C45.0099 72.2538 45.9748 61.0184 47.7037 50.266L8.46424 50.2284ZM117.086 50.2642C118.798 61.3319 119.368 73.2899 118.734 84.4555C118.419 90.0295 117.456 95.6567 117.35 101.217L156.244 101.237L157.133 99.0376C162.409 81.6298 162.737 67.4452 156.171 50.2284L117.086 50.2642ZM14.2228 104.954L10.1297 105.138C23.4413 127.301 37.4127 139.295 62.86 145.661C64.0309 145.95 65.2061 146.222 66.3853 146.475L69.1181 147.034C57.4329 134.564 51.5859 121.742 48.5221 104.896C37.1079 104.884 25.6292 104.616 14.2228 104.954ZM54.9655 104.947C54.2205 105.008 52.982 104.922 52.3913 105.347C52.6923 108.243 53.5814 111.191 54.3746 113.985C57.3079 124.32 61.9696 136.019 70.5446 143.008C74.3157 146.079 79.0419 148.27 83.9975 147.737C90.2219 147.067 95.1942 142.675 98.9563 137.971C99.1898 137.678 99.414 137.378 99.629 137.071C106.198 127.25 110.06 116.668 112.46 105.145C103.714 104.431 94.7387 104.748 85.9633 104.762C75.6521 104.778 65.2678 104.605 54.9655 104.947ZM116.393 104.905C112.198 122.549 108.226 133.662 95.6219 146.963C105.31 145.095 115.098 142.273 123.648 137.229C136.19 129.488 148.598 118.912 154.36 104.961C141.747 104.598 129.009 104.605 116.393 104.905Z" fill="#1E1E1E"/>
<path d="M52.2402 46.538C54.3725 35.6741 58.1143 24.5486 64.5588 15.4422C68.911 9.29232 73.8922 5.09146 81.5285 3.78872C84.9692 3.73886 88.3978 4.78583 91.3289 6.55786C104.285 14.3914 109.214 32.8594 112.489 46.5498C102.91 46.7308 93.3147 46.6602 83.7348 46.7012C73.2462 46.7196 62.7225 46.872 52.2402 46.538Z" fill="#F9AB00"/>
<path d="M11.2488 46.3361L10.7217 46.2146C10.5478 44.5968 12.9879 41.3225 13.9086 39.9547C27.3227 20.03 45.0123 9.51243 68.3836 4.92471C68.6878 5.54051 68.0483 5.93412 67.6138 6.34967C64.6874 9.14873 62.1463 12.0051 59.9922 15.4483C54.109 24.852 50.6993 35.8067 48.5147 46.6172C36.2143 46.6362 23.4808 47.6538 11.2488 46.3361Z" fill="#F9AB00"/>
<path d="M116.412 46.7045C113.406 34.3367 110.028 22.6118 102.393 12.1961C100.501 9.61315 97.8666 7.58436 96.0227 4.99319C95.9861 4.94155 95.9506 4.88891 95.9141 4.83672C101.525 5.75736 106.896 7.09256 112.221 9.1014C129.685 15.6894 146.428 29.0637 154.242 46.3379C149.178 46.9251 143.962 46.7296 138.867 46.728L116.412 46.7045Z" fill="#F9AB00"/>
<path d="M51.3257 50.2717L56.7962 50.125C75.5174 49.5223 94.409 49.9384 113.136 50.263C116.283 66.649 116.472 84.8783 113.078 101.2C111.459 101.412 109.824 101.421 108.194 101.463C103.842 101.498 99.4832 101.277 95.1282 101.266L51.4132 101.223C49.0919 83.8046 49.2139 67.7331 51.3257 50.2717Z" fill="#F9AB00"/>
<path d="M8.45588 101.239C1.57265 82.3432 2.54006 69.1643 8.46475 50.2282L47.7042 50.2657C45.9753 61.0182 45.0104 72.2535 45.8115 83.1266C46.1431 87.6279 47.8022 97.0992 47.4737 100.833C46.6892 101.307 46.0667 101.205 45.1681 101.233L8.45588 101.239Z" fill="#F9AB00"/>
<path d="M117.351 101.217C117.456 95.6564 118.419 90.0292 118.735 84.4553C119.369 73.2896 118.798 61.3317 117.086 50.264L156.171 50.2282C162.737 67.4449 162.409 81.6295 157.133 99.0373L156.244 101.237L117.351 101.217Z" fill="#F9AB00"/>
<path d="M10.1309 105.138L14.224 104.954C25.6303 104.616 37.1091 104.884 48.5233 104.896C51.5871 121.742 57.4341 134.563 69.1193 147.033L66.3865 146.475C65.2072 146.221 64.0321 145.95 62.8612 145.66C37.4139 139.295 23.4425 127.3 10.1309 105.138Z" fill="#F9AB00"/>
<path d="M99.6283 137.071C99.4134 137.378 99.1891 137.678 98.9557 137.971C95.1935 142.675 90.2213 147.067 83.9969 147.737C79.0412 148.27 74.315 146.079 70.544 143.008C61.969 136.018 57.3072 124.32 54.374 113.985C53.5808 111.191 52.6917 108.243 52.3906 105.347C52.9814 104.922 54.2198 105.008 54.9648 104.947C65.2671 104.605 75.6514 104.778 85.9627 104.762C94.7381 104.748 103.713 104.431 112.46 105.145C110.059 116.668 106.197 127.25 99.6283 137.071Z" fill="#F9AB00"/>
<path d="M95.623 146.962C108.227 133.661 112.199 122.548 116.394 104.904C129.01 104.604 141.748 104.597 154.361 104.96C148.599 118.911 136.191 129.487 123.649 137.228C115.099 142.272 105.312 145.095 95.623 146.962Z" fill="#F9AB00"/>
</svg>
