<svg width="101" height="99" viewBox="0 0 101 99" fill="none" xmlns="http://www.w3.org/2000/svg">
<path d="M55.9437 85.2913C52.1989 85.2913 48.6068 85.2913 45.0148 85.2913C44.7091 85.2913 44.1741 86.1319 44.1741 86.5905C44.0977 89.724 44.1741 92.9338 44.1741 96.0673C44.1741 98.0544 43.5627 98.7422 41.5757 98.9715C40.9643 98.9715 40.2764 98.9715 39.665 98.9715C32.6338 98.9715 25.5262 98.9715 18.4951 98.9715C15.438 98.9715 14.6738 98.2072 14.6738 95.0738C14.6738 92.246 14.6738 89.4183 14.6738 86.5905C14.6738 85.4441 14.2916 85.062 13.1452 85.062C9.93536 85.062 6.72548 85.062 3.51559 85.062C1.06996 85.062 0.0764259 84.1449 0.0764259 81.6228C0.0764259 73.9802 0.0764259 66.3376 0.0764259 58.6186C0.0764259 56.173 1.06996 55.2559 3.51559 55.2559C6.57262 55.2559 9.62966 55.2559 12.6867 55.2559C13.2981 55.2559 13.8331 55.2559 14.4445 55.2559C14.5209 54.7973 14.5973 54.4916 14.5973 54.2624C14.5973 51.1289 14.5973 48.0719 14.5973 44.9384C14.5973 43.9449 14.2152 43.5627 13.2217 43.5627C10.1646 43.5627 7.1076 43.5627 4.05057 43.5627C0.687833 43.5627 0 42.7985 0 39.4357C0 32.0989 0 24.6855 0 17.3487C0 14.7502 0.840684 13.9095 3.51559 13.9095C6.8019 13.9095 10.0118 13.9095 13.2981 13.9095C14.2916 13.9095 14.6738 13.6038 14.6738 12.5338C14.6738 9.47681 14.6738 6.41978 14.6738 3.36274C14.6738 0.917117 15.7437 0 18.1129 0C25.297 0 32.4046 0 39.5886 0C40.3529 0 41.0407 0 41.8049 0C43.4099 0.229278 44.1741 1.06996 44.1741 2.67491C44.1741 5.96122 44.1741 9.17111 44.1741 12.4574C44.1741 13.451 44.4034 13.9095 45.4734 13.9095C48.6068 13.9095 51.8167 13.9095 54.9502 13.9095C55.9437 13.9095 56.173 13.451 56.173 12.5338C56.173 9.40039 56.173 6.34334 56.173 3.20988C56.173 1.14639 57.243 0 59.3829 0C67.1783 0 74.9738 0 82.7692 0C84.8327 0 85.8262 1.06997 85.8262 3.13346C85.8262 6.1905 85.8262 9.24753 85.8262 12.3046C85.8262 13.5274 86.2848 13.9095 87.4312 13.9095C90.7175 13.9095 93.9274 13.9095 97.2137 13.9095C99.5829 13.9095 100.424 14.7502 100.424 16.9665C100.424 24.6855 100.424 32.481 100.424 40.2C100.424 42.5692 99.5829 43.4863 97.1373 43.4863C93.9274 43.4863 90.7175 43.4863 87.5076 43.4863C86.2848 43.4863 85.8262 43.8684 85.9027 45.0913C85.9027 47.9954 85.9027 50.8996 85.9027 53.8038C85.9027 54.8738 86.2848 55.1795 87.2783 55.1795C90.5646 55.1795 93.7745 55.1795 97.0608 55.1795C99.5829 55.1795 100.5 56.0202 100.5 58.5422C100.5 66.2612 100.5 74.0567 100.5 81.7757C100.5 83.992 99.5065 84.9091 97.2901 84.9091C94.0038 84.9091 90.7939 84.9091 87.5076 84.9091C86.2848 84.9091 85.9027 85.3677 85.9027 86.5141C85.9027 89.4947 85.9027 92.5517 85.9027 95.5323C85.9027 97.8251 85.062 98.6658 82.7692 98.6658C75.0502 98.6658 67.3312 98.6658 59.6122 98.6658C57.1665 98.6658 56.2494 97.6722 56.2494 95.2266C56.2494 92.3989 56.2494 89.4947 56.2494 86.6669C56.2494 86.132 56.2494 85.597 56.173 84.9091L55.9437 85.2913ZM83.6863 16.2023C83.6863 15.2087 83.6863 14.5209 83.6863 13.8331C83.6863 10.5468 83.6863 7.33688 83.6863 4.05057C83.6863 2.90418 83.3806 2.36921 82.0814 2.36921C74.6681 2.36921 67.2548 2.36921 59.8414 2.36921C58.5422 2.36921 58.0836 2.82776 58.1601 4.127C58.1601 7.64259 58.1601 11.1582 58.1601 14.6738C58.1601 15.8966 57.7779 16.2787 56.5551 16.2787C52.2753 16.2787 48.0719 16.2787 43.792 16.2787C42.5692 16.2787 42.1106 15.8966 42.1106 14.6738C42.1106 11.0817 42.1106 7.56616 42.1106 3.97414C42.1106 2.82775 41.7285 2.36921 40.5821 2.36921C33.0924 2.36921 25.6027 2.36921 18.0365 2.36921C16.8137 2.36921 16.3551 2.82776 16.3551 4.05057C16.3551 7.33688 16.3551 10.5468 16.3551 13.8331C16.3551 16.2023 16.3551 16.2023 13.9859 16.2023C10.4703 16.2023 6.95475 16.2023 3.43916 16.2023C2.29278 16.2023 1.75779 16.508 1.75779 17.8072C1.75779 25.1441 1.75779 32.5574 1.75779 39.8943C1.75779 41.27 2.29278 41.8049 3.66844 41.8049C7.33688 41.8049 11.0817 41.8049 14.7502 41.8049C15.7437 41.8049 16.2787 42.1107 16.2787 43.257C16.2787 47.5369 16.2787 51.8167 16.2787 56.173C16.2787 57.3958 15.8202 57.778 14.5973 57.778C11.0053 57.778 7.41331 57.778 3.74487 57.778C1.83422 57.778 1.68137 57.9308 1.68137 59.765C1.68137 66.9491 1.68137 74.2095 1.68137 81.3935C1.68137 83.1513 1.83422 83.3042 3.66844 83.3042C7.26046 83.3042 10.776 83.3042 14.3681 83.3042C15.8966 83.3042 16.2787 83.8392 16.2787 85.2913C16.2023 88.654 16.2787 92.0167 16.2787 95.3795C16.2787 96.6787 16.7373 97.2901 18.1129 97.2901C25.4498 97.2901 32.8631 97.2901 40.2 97.2901C41.4992 97.2901 42.0342 96.7551 42.0342 95.4559C42.0342 92.1696 42.0342 88.9597 42.0342 85.6734C42.0342 83.457 42.0342 83.457 44.327 83.3806C48.3011 83.3806 52.3517 83.3806 56.3259 83.3806C57.7779 83.3806 58.0837 83.8392 58.0837 85.1384C58.0837 88.654 58.0837 92.1696 58.0837 95.6852C58.0837 96.7551 58.3894 97.3665 59.6122 97.2901C67.1019 97.2901 74.5152 97.2901 82.0049 97.2901C83.1513 97.2901 83.6099 96.908 83.6099 95.6852C83.6099 92.246 83.6099 88.8068 83.6099 85.2913C83.6099 83.9665 84.2468 83.3042 85.5205 83.3042C89.1125 83.3042 92.7046 83.3042 96.373 83.3042C97.8251 83.3042 98.2837 82.8456 98.2837 81.3935C98.2837 74.2095 98.2837 66.9491 98.2837 59.765C98.2837 57.8544 98.2072 57.7015 96.2966 57.7015C92.6281 57.7015 88.9597 57.7015 85.3677 57.7015C84.0684 57.7015 83.6863 57.243 83.6863 55.9437C83.6863 51.7403 83.6863 47.5369 83.6863 43.3335C83.6863 42.1106 84.0684 41.7285 85.2913 41.7285C89.0361 41.7285 92.781 41.7285 96.5259 41.7285C97.7487 41.7285 98.2837 41.3464 98.2837 39.9707C98.2837 32.5574 98.2837 25.1441 98.2837 17.7308C98.2837 16.5844 97.9015 16.1259 96.7551 16.1259C94.2331 16.1259 91.711 16.1259 89.189 16.1259C87.4312 16.1259 85.6734 16.1259 83.6863 16.1259V16.2023Z" fill="#231F20"/>
<path d="M83.7627 16.2024C85.7498 16.2024 87.5076 16.2024 89.2654 16.2024C91.7874 16.2024 94.3095 16.2024 96.8315 16.2024C97.9779 16.2024 98.3601 16.661 98.3601 17.8074C98.3601 25.2207 98.3601 32.634 98.3601 40.0473C98.3601 41.3466 97.8251 41.8051 96.6023 41.8051C92.8574 41.8051 89.1125 41.8051 85.3677 41.8051C84.1449 41.8051 83.7627 42.1872 83.7627 43.4101C83.7627 47.6135 83.7627 51.8169 83.7627 56.0203C83.7627 57.3196 84.1449 57.7781 85.4441 57.7781C89.1125 57.7781 92.781 57.7781 96.373 57.7781C98.2836 57.7781 98.3601 57.931 98.3601 59.8416C98.3601 67.0257 98.3601 74.2861 98.3601 81.4701C98.3601 82.8458 97.9015 83.3808 96.4494 83.3808C92.8574 83.3044 89.2654 83.3808 85.5969 83.3808C84.3232 83.3808 83.6863 84.0431 83.6863 85.3679C83.6863 88.807 83.6863 92.2462 83.6863 95.7618C83.6863 96.9082 83.2277 97.3667 82.0814 97.3667C74.5916 97.3667 67.1783 97.3667 59.6886 97.3667C58.4658 97.3667 58.1601 96.7553 58.1601 95.7618C58.1601 92.2462 58.1601 88.7306 58.1601 85.215C58.1601 83.9158 57.8544 83.3808 56.4023 83.4572C52.4281 83.5336 48.3776 83.4572 44.4034 83.4572C42.1106 83.4572 42.1106 83.4572 42.1106 85.75C42.1106 89.0363 42.1106 92.2462 42.1106 95.5325C42.1106 96.8317 41.6521 97.3667 40.2764 97.3667C32.9395 97.3667 25.5262 97.3667 18.1893 97.3667C16.8137 97.3667 16.3551 96.7553 16.3551 95.4561C16.3551 92.0933 16.3551 88.7306 16.3551 85.3679C16.3551 83.9158 15.973 83.3808 14.4445 83.3808C10.9289 83.4572 7.33687 83.3808 3.74485 83.3808C1.91063 83.3808 1.75778 83.2279 1.75778 81.4701C1.75778 74.2861 1.75778 67.0257 1.75778 59.8416C1.75778 58.0074 1.91063 57.8545 3.82128 57.8545C7.4133 57.8545 11.0053 57.8545 14.6738 57.8545C15.8966 57.8545 16.3551 57.4724 16.3551 56.2496C16.3551 51.9698 16.3551 47.6899 16.3551 43.3336C16.3551 42.1872 15.8201 41.8815 14.8266 41.8815C11.1582 41.8815 7.4133 41.8815 3.74485 41.8815C2.29276 41.8815 1.75778 41.3466 1.83421 39.9709C1.83421 32.634 1.83421 25.2207 1.83421 17.8838C1.83421 16.5846 2.36919 16.2789 3.51558 16.2789C7.03117 16.2789 10.5468 16.2789 14.0623 16.2789C16.3551 16.2789 16.4315 16.2789 16.4315 13.9097C16.4315 10.6234 16.4315 7.41349 16.4315 4.12717C16.4315 2.90436 16.8901 2.4458 18.1129 2.4458C25.6026 2.4458 33.0924 2.4458 40.6585 2.4458C41.8049 2.4458 42.1871 2.90435 42.1871 4.05074C42.1871 7.64276 42.1871 11.1583 42.1871 14.7504C42.1871 15.9732 42.6456 16.3553 43.8684 16.3553C48.1483 16.3553 52.3517 16.3553 56.6315 16.3553C57.9308 16.3553 58.2365 15.8968 58.2365 14.7504C58.2365 11.2348 58.2365 7.71918 58.2365 4.20359C58.2365 2.90435 58.695 2.4458 59.9179 2.4458C67.3312 2.4458 74.7445 2.4458 82.1578 2.4458C83.457 2.4458 83.7627 2.98079 83.7627 4.12717C83.7627 7.41349 83.7627 10.6234 83.7627 13.9097C83.7627 14.5975 83.7627 15.2853 83.7627 16.2789V16.2024ZM50.2882 57.7017C52.4281 57.7017 54.6445 57.7017 56.7844 57.7017C57.8544 57.7017 58.2365 57.3196 58.2365 56.2496C58.2365 51.9698 58.2365 47.6899 58.2365 43.4101C58.2365 42.2637 57.8544 41.8051 56.708 41.8051C52.3517 41.8051 47.9954 41.8051 43.7156 41.8051C42.5692 41.8051 42.2635 42.2637 42.2635 43.3336C42.2635 47.6135 42.2635 51.8933 42.2635 56.1732C42.2635 57.4724 42.7985 57.7781 43.9449 57.7781C46.0848 57.7781 48.2247 57.7781 50.2882 57.7781V57.7017Z" fill="#F8D8D8"/>
<path d="M50.2882 57.7016C48.1483 57.7016 46.0084 57.7016 43.9449 57.7016C42.7985 57.7016 42.2635 57.3959 42.2635 56.0967C42.2635 51.8169 42.2635 47.537 42.2635 43.2572C42.2635 42.1872 42.5692 41.7286 43.7156 41.7286C48.0719 41.7286 52.4281 41.7286 56.708 41.7286C57.8544 41.7286 58.2365 42.1872 58.2365 43.3336C58.2365 47.6134 58.2365 51.8933 58.2365 56.1731C58.2365 57.2431 57.8544 57.7016 56.7844 57.6252C54.6445 57.6252 52.4281 57.6252 50.2882 57.6252V57.7016ZM56.0966 55.4853C56.0966 51.7404 56.0966 48.2248 56.0966 44.7857C56.0966 44.48 55.4087 43.8686 54.9502 43.8686C51.7403 43.8686 48.5304 43.8686 45.3205 43.8686C44.5563 43.8686 44.0977 44.0978 44.1741 45.015C44.1741 48.2248 44.1741 51.4347 44.1741 54.6446C44.1741 54.9503 44.6327 55.5617 44.9384 55.5617C48.6068 55.5617 52.1989 55.5617 56.0966 55.5617V55.4853Z" fill="#231F20"/>
</svg>
