<svg width="314" height="153" viewBox="0 0 314 153" fill="none" xmlns="http://www.w3.org/2000/svg">
<path d="M208.644 138.717C209.144 136.817 209.444 135.117 209.944 133.417C212.444 124.317 216.444 115.917 222.444 108.517C225.444 104.817 228.744 101.517 232.544 98.7166C236.544 95.8166 240.944 93.4166 245.644 91.7166C250.344 90.0166 255.144 89.2166 260.044 89.1166C265.344 89.1166 270.444 89.8166 275.544 91.6166C282.544 94.1166 288.644 98.0166 293.944 103.117C297.944 106.917 301.244 111.317 304.044 116.017C308.744 123.917 311.544 132.417 312.944 141.417C313.444 144.517 313.544 147.617 313.744 150.717C313.744 151.317 313.744 151.917 313.744 152.617H311.544C311.544 151.317 311.344 150.017 311.244 148.717C310.944 143.617 310.244 138.617 308.844 133.617C306.944 126.717 304.044 120.117 300.044 114.217C296.944 109.617 293.344 105.417 289.044 101.917C286.044 99.5166 282.844 97.4166 279.444 95.7166C273.644 92.9166 267.544 91.5166 261.144 91.4166C257.044 91.4166 252.944 91.9167 248.944 93.0167C241.944 95.0167 235.844 98.6166 230.444 103.417C226.144 107.217 222.544 111.717 219.644 116.617C217.044 120.817 214.944 125.317 213.544 130.017C211.644 136.117 210.344 142.317 210.144 148.717C210.144 150.017 210.044 151.217 209.944 152.417C209.744 152.417 209.644 152.617 209.544 152.617C207.844 152.817 207.644 152.617 207.644 150.917C207.644 146.417 206.944 141.917 206.144 137.517C205.344 133.217 203.944 129.117 202.344 125.117C200.344 120.317 197.844 115.917 194.844 111.717C191.944 107.817 188.644 104.317 184.844 101.217C181.244 98.3166 177.344 96.0167 173.044 94.3167C170.344 93.2167 167.544 92.5167 164.744 92.0167C160.544 91.2167 156.244 91.1166 152.044 91.6166C147.444 92.2166 143.044 93.4166 138.944 95.4166C133.244 98.1166 128.344 101.717 123.944 106.317C121.344 109.017 119.044 112.117 116.944 115.317C114.344 119.317 112.344 123.617 110.644 128.017C109.344 131.617 108.444 135.217 107.644 138.917C106.844 143.217 106.544 147.617 106.244 151.917C106.244 152.117 106.244 152.217 106.244 152.517C105.644 152.517 104.944 152.517 104.144 152.617C104.144 152.017 104.044 151.617 104.044 151.117C104.044 147.317 103.644 143.617 102.944 139.917C101.844 133.917 100.144 128.017 97.5444 122.417C95.7444 118.617 93.5444 114.917 91.0444 111.517C89.3444 109.217 87.2444 107.117 85.3444 105.017C82.9444 102.317 80.0444 100.217 77.0444 98.3167C72.2444 95.2167 67.1445 93.0166 61.4445 91.9166C53.2445 90.3166 45.1444 91.1166 37.3444 94.1166C33.3444 95.6166 29.6444 97.8166 26.2444 100.417C22.2444 103.517 18.7444 107.117 15.6444 111.117C12.6444 115.017 10.2444 119.317 8.24444 123.717C5.94444 129.017 4.24445 134.617 3.34445 140.317C2.84445 143.717 2.44444 147.117 2.44444 150.517C2.44444 150.717 2.44444 151.017 2.44444 151.217C2.44444 152.017 2.24444 152.217 1.44444 152.217C1.04444 152.217 0.544444 152.217 0.0444444 152.217C0.0444444 151.817 -0.0555556 151.517 0.0444444 151.217C0.344444 146.417 0.544435 141.517 1.64444 136.817C2.34444 134.117 3.04445 131.417 3.84445 128.717C5.24445 124.317 7.04444 120.117 9.44444 116.217C11.8444 112.117 14.5444 108.317 17.8444 104.817C20.6444 101.817 23.7444 99.1167 27.1444 96.8167C30.9444 94.2167 35.0445 92.3167 39.4445 90.8167C43.8445 89.3167 48.4444 88.7166 53.0444 88.6166C59.6444 88.6166 65.8444 90.0166 71.8444 92.7166C76.8444 94.9166 81.3444 97.9166 85.3444 101.617C88.7444 104.717 91.7444 108.117 94.3444 112.017C98.0444 117.417 100.844 123.217 102.844 129.417C103.544 131.717 104.044 134.017 104.744 136.417C104.844 136.817 104.944 137.217 105.044 137.617C105.044 137.617 105.244 137.617 105.344 137.617C105.444 137.317 105.544 137.117 105.644 136.817C106.744 131.617 108.444 126.517 110.644 121.717C113.044 116.517 116.044 111.717 119.744 107.317C124.044 102.117 129.144 97.9166 135.044 94.6166C137.744 93.1166 140.644 92.0166 143.644 90.9166C147.944 89.4166 152.344 88.8167 156.744 88.8167C162.444 88.8167 168.044 89.7166 173.444 91.9166C177.344 93.4166 180.944 95.3166 184.344 97.7166C186.844 99.5166 189.144 101.517 191.344 103.717C194.644 107.017 197.444 110.617 199.844 114.617C202.844 119.517 205.244 124.617 206.844 130.117C207.544 132.617 208.244 135.117 208.844 137.617C208.844 137.817 208.944 138.017 209.044 138.417L208.644 138.717Z" fill="#231F20"/>
<path d="M294.845 34.4166C294.945 53.7166 278.745 69.4167 259.145 68.6167C241.545 67.9167 226.145 53.6167 226.145 34.1167C226.145 15.1167 241.545 -0.583354 261.745 0.0166464C279.745 0.516646 294.945 15.5166 294.745 34.4166H294.845ZM260.545 2.61665C259.945 2.61665 259.245 2.61665 258.645 2.61665C254.045 2.81665 249.745 4.01666 245.745 6.21666C241.445 8.51666 237.845 11.6167 234.945 15.6167C232.545 18.9167 230.845 22.4167 229.845 26.3167C228.845 30.1167 228.545 34.1167 229.045 38.0167C229.245 39.8167 229.645 41.5166 230.145 43.2166C230.845 45.7166 232.045 48.1166 233.345 50.4166C235.445 54.0166 238.145 57.0167 241.445 59.5167C244.045 61.5167 246.945 62.9167 249.945 64.1167C251.845 64.9167 253.845 65.2167 255.845 65.6167C259.745 66.3167 263.745 66.1166 267.645 65.2166C272.645 64.0166 277.145 61.8166 281.145 58.4166C283.345 56.5166 285.145 54.4167 286.845 52.1167C288.045 50.4167 289.045 48.7167 289.845 46.8167C290.745 44.6167 291.345 42.3166 291.945 39.9166C292.945 35.2166 292.545 30.5167 291.445 26.0167C290.645 22.6167 289.145 19.3166 287.045 16.4166C284.245 12.4166 280.845 9.11665 276.545 6.61665C271.645 3.81665 266.345 2.41665 260.745 2.51665L260.545 2.61665Z" fill="#231F20"/>
<path d="M18.6443 34.4166C18.2443 15.9166 33.6443 0.416653 52.1443 0.116653C71.6443 -0.183347 86.9443 15.4166 87.1443 33.9166C87.3443 53.4166 71.9443 68.0166 54.1443 68.7166C34.6443 69.5166 18.2443 53.5166 18.6443 34.4166ZM52.7443 66.1167C70.2443 66.2167 84.5443 51.8167 84.6443 34.5167C84.6443 17.0167 70.3443 2.21665 52.0443 2.61665C35.2443 3.01665 20.7443 16.7166 21.0443 34.9166C21.3443 52.3166 35.7443 66.1167 52.7443 66.0167V66.1167Z" fill="#231F20"/>
<path d="M122.345 34.4166C122.345 14.7166 138.345 -0.283371 157.245 0.0166288C175.645 0.216629 191.345 15.3166 191.045 34.9166C190.745 54.3166 174.945 69.4166 155.145 68.6166C137.645 67.9166 122.545 53.6166 122.345 34.4166ZM188.545 34.4166C188.545 17.0166 174.745 3.41664 158.245 2.71664C139.145 1.91664 124.945 17.0166 124.945 34.3166C124.945 51.9166 138.945 65.6166 155.645 66.2166C173.845 66.8166 188.445 51.9167 188.545 34.5167V34.4166Z" fill="#231F20"/>
<path d="M260.545 2.71664C266.245 2.71664 271.445 4.01665 276.345 6.81665C280.545 9.21665 284.045 12.5166 286.845 16.6166C288.945 19.5166 290.445 22.8166 291.245 26.2166C292.345 30.8166 292.845 35.4166 291.745 40.1166C291.245 42.5166 290.545 44.8167 289.645 47.0167C288.845 48.9167 287.845 50.7167 286.645 52.3167C284.945 54.6166 283.145 56.7166 280.945 58.6166C276.945 62.0166 272.445 64.2166 267.445 65.4166C263.545 66.3166 259.645 66.5167 255.645 65.8167C253.645 65.5167 251.545 65.1166 249.745 64.3167C246.745 63.1166 243.845 61.7166 241.245 59.7166C237.945 57.2166 235.245 54.1166 233.145 50.6166C231.845 48.3166 230.645 45.9166 229.945 43.4166C229.445 41.7166 229.145 39.9166 228.845 38.2166C228.345 34.2166 228.645 30.3167 229.645 26.5167C230.645 22.6167 232.445 19.1166 234.745 15.8167C237.645 11.8167 241.245 8.71663 245.545 6.41663C249.545 4.21663 253.845 3.01665 258.445 2.81665C259.045 2.81665 259.745 2.81665 260.345 2.81665L260.545 2.71664Z" fill="#95B7ED"/>
<path d="M52.8443 66.1166C35.8443 66.1166 21.4443 52.4166 21.1443 35.0167C20.8443 16.8167 35.2443 3.11663 52.1443 2.71663C70.4443 2.31663 84.8443 17.1166 84.7443 34.6166C84.7443 51.9166 70.4443 66.3166 52.8443 66.2166V66.1166Z" fill="#95B7ED"/>
<path d="M188.545 34.4166C188.545 51.9166 173.945 66.7167 155.645 66.1166C138.945 65.5167 124.845 51.8166 124.945 34.2166C124.945 17.0166 139.245 1.81665 158.245 2.61665C174.645 3.31665 188.445 17.0167 188.545 34.3167V34.4166Z" fill="#95B7ED"/>
</svg>
