<svg width="52" height="152" viewBox="0 0 52 152" fill="none" xmlns="http://www.w3.org/2000/svg">
<path d="M0.600006 139.2C0.400006 138 1 137 1.5 136.1C2.8 133.7 3.99999 131.4 5.29999 129C6.19999 127.4 7.1 125.8 8 124.2C9.7 121.1 11.4 118.1 13 115C13.8 113.6 14.6 112.2 15.4 110.8C15.7 110.4 16 109.9 16.2 109.5C16.4 109 16.4 108.4 16.4 107.9C16.4 107.8 16.2 107.6 16 107.5C14.7 106.8 13.3 106.2 12.1 105.4C10.7 104.5 9.40001 103.5 8.20001 102.3C6.90001 101 5.59999 99.6 4.39999 98.1C3.79999 97.3 3.39999 96.3 2.89999 95.3C1.79999 93.3 1.10001 91.1 0.600006 88.9C0.300006 87.6 0.1 86.2 0 84.8C0 83.5 0.100012 82.1 0.200012 80.8C0.200012 80.2 0.4 79.5 0.5 78.9C0.7 77.3 1.09999 75.8 1.79999 74.3C2.49999 72.7 3.30001 71.1 4.20001 69.6C5.10001 68.1 6.30001 66.7 7.60001 65.5C9.50001 63.6 11.6 62 14 60.8C15.4 60.1 17 59.6 18.5 59.1C20.7 58.3 23.1 58.2 25.4 58C26.2 57.9 27.1 58.1 28 58.2C29.2 58.4 30.5 58.5 31.7 58.8C34.7 59.5 37.4 60.7 40 62.4C40.9 63 41.8 63.7 42.6 64.5C43.8 65.7 45 66.8 46 68.1C47.5 70 48.6 72.1 49.5 74.3C50.7 77.3 51.2 80.4 51.3 83.5C51.3 85.1 51 86.7 50.8 88.4C50.6 89.7 50.4 91.1 50 92.4C49.6 93.7 49.1 95 48.5 96.3C47.8 97.9 47 99.5 46.2 101.1C45.7 102.1 45 103.1 44.5 104.2C44.3 104.6 44.1 105.1 43.9 105.5C42.8 107.6 41.8 109.6 40.7 111.7C39.6 113.9 38.4 116 37.2 118.2C36.5 119.6 35.8 121 35.1 122.3C34.3 123.7 33.6 125.2 32.8 126.6C31.7 128.6 30.7 130.6 29.7 132.7C28.8 134.4 27.8 136.1 26.9 137.8C25.9 139.7 24.8 141.7 23.8 143.7C22.7 145.8 21.6 148 20.4 150.1C20.1 150.6 19.6 151 19.2 151.5C19.2 151.5 19 151.7 18.9 151.7C17.8 151.7 16.6 152 15.5 151.4C14.9 151.1 14.5 150.6 13.9 150.2C12.2 149 10.4 147.9 8.70001 146.7C6.90001 145.4 5.00001 144.1 3.20001 142.8C2.70001 142.4 2.20001 142.1 1.70001 141.7C0.900012 141.1 0.500006 140.3 0.600006 139.3V139.2Z" fill="#231F20"/>
<path d="M25.6996 50.9C25.3996 50.9 25.0996 50.9 24.6996 50.9C22.7996 51 20.9996 50.7 19.1996 50.2C17.4996 49.7 15.8996 49.2 14.2996 48.5C13.4996 48.2 12.6996 47.6 11.9996 47.1C9.59963 45.7 7.69963 43.8 5.89963 41.7C4.49963 40.1 3.49964 38.3 2.59964 36.4C1.69964 34.5 0.999644 32.6 0.699644 30.6C0.399644 28.6 -0.100362 26.7 0.0996382 24.7C0.199638 23.4 0.499644 22.1 0.699644 20.8C0.899644 18.6 1.69964 16.6 2.69964 14.6C3.39964 13.2 4.09964 11.8 5.09964 10.5C6.69964 8.3 8.49962 6.29999 10.7996 4.79999C11.9996 3.99999 13.1996 3.2 14.3996 2.5C14.8996 2.2 15.4996 1.99999 16.0996 1.79999C19.2996 0.599988 22.4996 0.1 25.8996 0C29.1996 0 32.2996 0.700012 35.2996 1.70001C36.6996 2.20001 37.9996 2.99999 39.2996 3.79999C40.2996 4.39999 41.3996 5.09999 42.2996 5.89999C44.0996 7.39999 45.6996 9 46.9996 11C47.2996 11.5 47.7996 12.1 48.0996 12.6C48.5996 13.6 49.0996 14.6 49.5996 15.6C50.4996 17.6 50.8996 19.7 51.2996 21.9C51.5996 23.7 51.6996 25.5 51.4996 27.4C51.1996 29.6 50.8996 31.8 50.1996 33.9C49.7996 35 49.2996 36.1 48.7996 37.2C48.4996 37.9 48.0996 38.7 47.5996 39.4C47.1996 40 46.7996 40.5 46.2996 41.1C44.7996 42.9 43.1996 44.7 41.2996 46.1C40.3996 46.8 39.3996 47.3 38.3996 47.9C37.4996 48.4 36.5996 48.9 35.6996 49.4C35.4996 49.5 35.1996 49.6 34.8996 49.7C33.1996 50.2 31.4996 50.7 29.7996 51.1C28.8996 51.3 27.8996 51.2 26.9996 51.2C26.6996 51.2 26.3996 51.2 25.9996 51.2L25.6996 50.9Z" fill="#231F20"/>
</svg>
