<svg width="118" height="118" viewBox="0 0 118 118" fill="none" xmlns="http://www.w3.org/2000/svg">
<path d="M59.9 55.3C73 42.1 85.8 29.2 98.8 16.1C99.5 16.8 100.2 17.4 100.7 18C100.8 18.1 100.6 18.7 100.4 18.9C93.1 26.2 85.8 33.6 78.6 40.9C73.3 46.3 67.9 51.6 62.4 57.2C63.2 57.2 63.8 57.4 64.4 57.4C81.5 57.4 98.6 57.4 115.6 57.4C117.1 57.4 117.8 58.4 117.2 59.8C117.2 60 116.7 60.2 116.4 60.3C116 60.3 115.5 60.3 115 60.3C98.2 60.3 81.5 60.3 64.7 60.3C63.9 60.3 63.1 60.3 62.3 60.3C62.3 60.4 62.2 60.6 62.1 60.7C63.8 62.3 65.4 63.9 67.1 65.5C77.5 76 87.9 86.4 98.2 96.9C98.7 97.4 99.2 97.9 99.7 98.4C100.7 99.4 100.6 100.6 99.3 101.2C99 101.3 98.4 101 98.1 100.7C95.1 97.8 92.2 94.8 89.3 91.9C79.9 82.4 70.5 72.9 61 63.5C60.7 63.2 60.4 63.1 59.9 62.6C59.9 64.1 59.9 65.4 59.9 66.6C59.9 81.4 59.9 96.2 59.9 111C59.9 112.8 59.9 114.6 59.9 116.4C59.9 118 59.9 118 58.3 117.9C57.9 117.9 57.6 117.9 57 117.8V63.1C56.9 63.1 56.8 63 56.7 62.9C43.9 75.8 31.1 88.7 18.3 101.6C18 101.4 17.9 101.4 17.8 101.3C16.1 99.7 16.1 99.7 17.8 98.1C27.1 88.8 36.3 79.4 45.6 70.1C48.5 67.2 51.4 64.3 54.3 61.4C54.5 61.2 54.6 61 54.9 60.6C53.9 60.6 53.2 60.5 52.5 60.5C35.5 60.5 18.6 60.5 1.60001 60.5C0.500006 60.5 0 60.3 0 59.1C0 57.9 0.400006 57.6 1.60001 57.6C18.5 57.6 35.4 57.6 52.2 57.6C52.9 57.6 53.7 57.6 54.8 57.6C54.3 57 54.1 56.7 53.8 56.4C45.6 48.1 37.4 39.9 29.3 31.6C25.3 27.5 21.2 23.5 17.2 19.4C16.7 18.9 16.1 18.4 17 17.7C17.7 17.2 18.1 16.2 19.2 17.3C31.1 29.4 43 41.4 55 53.4C55.6 54 56.2 54.6 57.1 55.4V0H60V55.4L59.9 55.3Z" fill="#231F20"/>
</svg>
